<?xml version="1.0" standalone="no"?>
<!DOCTYPE svg PUBLIC "-//W3C//DTD SVG 20010904//EN"
 "http://www.w3.org/TR/2001/REC-SVG-20010904/DTD/svg10.dtd">
<svg version="1.0" xmlns="http://www.w3.org/2000/svg"
 width="2066.000000pt" height="614.000000pt" viewBox="0 0 2066.000000 614.000000"
 preserveAspectRatio="xMidYMid meet">

<g transform="translate(0.000000,614.000000) scale(0.100000,-0.100000)"
fill="#000000" stroke="none">
<path d="M0 3070 l0 -3070 10330 0 10330 0 0 3070 0 3070 -10330 0 -10330 0 0
-3070z m1430 778 c15 -37 174 -357 212 -428 107 -196 122 -220 133 -217 14 5
163 276 268 489 l92 187 218 0 c119 1 217 -2 217 -5 0 -9 -94 -189 -161 -310
-34 -60 -75 -134 -92 -164 -68 -123 -285 -480 -331 -545 -20 -29 -21 -44 -26
-360 l-5 -330 -190 0 -190 0 -5 325 c-5 344 -3 330 -56 405 -24 34 -276 453
-319 530 -15 28 -50 90 -77 139 -91 163 -148 278 -148 297 0 18 11 19 224 19
l224 0 12 -32z m4620 -150 c114 -235 142 -296 230 -503 40 -93 81 -190 92
-215 11 -24 25 -56 30 -70 10 -24 11 -23 38 35 15 33 45 101 66 150 20 50 41
97 45 105 4 8 19 44 34 80 58 138 147 330 221 475 l61 120 181 3 c208 3 187
15 203 -116 36 -304 62 -605 78 -907 6 -99 15 -236 20 -305 6 -69 13 -182 16
-252 4 -108 2 -127 -11 -132 -9 -3 -94 -6 -190 -6 -131 0 -176 3 -179 13 -3 6
-9 125 -15 262 -27 658 -35 791 -49 799 -7 4 -18 -19 -82 -169 -17 -38 -37
-82 -45 -97 -8 -14 -14 -31 -14 -36 0 -6 -14 -41 -31 -79 -16 -37 -34 -77 -39
-88 -5 -11 -21 -48 -35 -82 -14 -35 -36 -86 -48 -115 -13 -29 -37 -83 -52
-120 l-28 -68 -141 0 -141 0 -12 28 c-6 15 -25 61 -43 102 -17 41 -35 82 -40
91 -4 9 -25 56 -44 105 -20 49 -41 98 -46 109 -54 121 -70 157 -70 162 0 3 -6
19 -14 36 -8 18 -28 61 -44 97 -16 36 -33 76 -37 90 -4 14 -14 34 -22 45 -13
19 -14 17 -13 -20 0 -36 -6 -159 -25 -485 -4 -58 -9 -206 -11 -330 -4 -193 -8
-227 -22 -237 -18 -14 -348 -19 -368 -5 -26 17 65 1384 106 1585 6 26 10 63
10 81 0 18 3 36 7 39 3 4 91 7 195 7 l188 0 90 -182z m9120 7 c47 -94 96 -195
109 -225 46 -103 92 -205 101 -225 25 -54 50 -114 50 -119 0 -3 11 -29 24 -58
13 -29 37 -83 52 -120 27 -64 44 -85 44 -55 1 6 9 30 20 52 11 22 19 43 20 47
0 4 14 37 31 75 17 37 37 82 45 100 8 17 14 33 14 36 0 5 28 69 82 187 12 25
36 79 55 120 19 41 66 139 105 218 l71 142 182 0 181 0 12 -72 c33 -199 79
-746 102 -1223 5 -115 14 -252 21 -303 8 -72 8 -96 -2 -108 -10 -12 -43 -14
-192 -12 l-181 3 -8 30 c-5 17 -13 165 -19 330 -6 165 -12 316 -13 335 -2 19
-6 94 -10 165 -4 72 -9 155 -12 185 -6 54 -6 54 -19 25 -10 -26 -21 -51 -65
-150 -5 -11 -18 -42 -30 -70 -28 -67 -26 -63 -155 -365 l-112 -265 -141 -3
-141 -3 -21 48 c-12 27 -28 62 -36 80 -8 17 -14 33 -14 36 0 3 -14 36 -31 74
-16 37 -34 77 -39 88 -39 88 -50 115 -50 120 0 3 -13 34 -28 68 -16 34 -58
131 -93 214 l-64 152 -12 -107 c-13 -109 -30 -462 -40 -789 -4 -130 -9 -185
-18 -193 -8 -7 -77 -9 -191 -8 l-179 3 -3 95 c-2 52 1 145 7 205 7 61 16 198
22 305 18 368 66 915 94 1078 l6 32 192 -2 192 -3 85 -170z m-4238 -42 l3
-188 218 -3 218 -2 -3 -158 -3 -157 -217 -3 -218 -2 1 -263 c0 -244 2 -266 22
-322 30 -81 70 -105 181 -105 43 0 97 5 120 11 115 30 106 29 116 3 5 -13 17
-65 26 -116 30 -171 32 -153 -18 -173 -71 -28 -167 -47 -268 -52 -265 -14
-452 85 -523 277 -41 111 -47 226 -45 814 3 485 5 560 18 567 8 4 60 15 115
24 55 9 118 20 140 24 22 5 57 9 77 10 l38 1 2 -187z m-7646 -178 c64 -17 172
-69 211 -103 15 -13 37 -31 48 -41 37 -29 107 -125 130 -176 62 -141 77 -216
72 -367 -2 -67 -9 -145 -16 -173 -54 -235 -202 -400 -421 -468 -71 -23 -103
-27 -197 -27 -207 0 -341 56 -472 196 -39 42 -71 81 -71 87 0 6 -6 18 -13 26
-8 9 -26 45 -40 81 -88 220 -69 499 48 690 43 69 144 169 213 209 64 38 159
72 227 82 66 10 214 2 281 -16z m5054 15 c148 -22 239 -66 330 -159 120 -121
170 -269 170 -498 0 -67 -3 -128 -6 -137 -5 -14 -51 -16 -415 -16 -454 0 -424
5 -394 -68 48 -113 175 -168 373 -159 116 5 183 16 257 42 27 9 52 12 57 7 11
-11 41 -193 42 -257 l1 -50 -70 -23 c-101 -33 -171 -43 -339 -49 -141 -5 -234
4 -291 27 -11 4 -41 16 -68 25 -118 42 -244 158 -302 280 -45 94 -66 180 -72
300 -12 223 53 417 187 555 54 56 145 121 185 133 11 3 40 13 65 22 83 31 188
40 290 25z m4042 -22 c106 -34 176 -76 247 -146 186 -184 249 -476 164 -762
-64 -218 -220 -368 -441 -424 -119 -30 -287 -20 -412 25 -148 53 -287 194
-344 348 -47 128 -51 152 -51 301 0 133 2 152 29 235 82 251 257 404 511 445
76 13 227 2 297 -22z m5192 -3 c103 -34 156 -67 228 -143 71 -76 108 -144 138
-256 17 -65 20 -101 18 -229 l-3 -152 -413 -3 -412 -2 6 -28 c32 -131 158
-202 359 -202 93 0 118 4 263 40 85 21 82 24 101 -85 32 -192 33 -209 3 -218
-75 -24 -136 -40 -187 -49 -93 -16 -362 -21 -415 -8 -146 37 -230 74 -307 138
-49 41 -130 143 -144 182 -5 14 -14 34 -19 45 -50 107 -72 302 -49 429 29 160
89 286 183 384 93 98 219 163 351 183 81 12 220 0 299 -26z m-7714 9 c35 -9
83 -25 108 -35 45 -20 129 -81 145 -106 4 -6 13 -18 20 -25 26 -27 46 -67 74
-144 l28 -79 0 -465 0 -465 -165 -3 c-91 -1 -175 0 -187 3 l-23 5 0 358 c0
376 -8 500 -36 554 -37 72 -86 91 -224 86 l-95 -3 -3 -489 c-1 -341 -6 -493
-13 -503 -9 -10 -51 -13 -179 -13 -93 0 -175 3 -184 6 -14 6 -16 71 -16 634
l0 628 53 12 c28 6 70 15 92 21 22 5 73 14 113 18 41 5 76 12 80 15 3 3 83 6
178 6 125 0 189 -4 234 -16z m3975 -3 c33 -6 73 -16 88 -23 28 -11 28 -13 21
-62 -3 -28 -10 -60 -14 -71 -4 -11 -11 -44 -15 -74 -4 -30 -13 -69 -21 -87
-15 -35 -5 -35 -142 -4 -56 13 -187 13 -234 -1 l-38 -10 0 -488 c0 -437 -2
-490 -16 -495 -20 -8 -338 -8 -358 0 -14 6 -16 69 -16 614 0 514 2 609 14 619
19 16 203 67 291 81 38 6 72 13 75 16 9 9 301 -3 365 -15z m-9445 -407 c0
-329 3 -406 16 -457 32 -123 80 -154 235 -152 53 1 101 5 107 9 9 5 12 139 12
502 l0 494 184 0 c158 0 185 -2 190 -16 8 -20 8 -1202 0 -1230 -3 -13 -16 -24
-32 -28 -15 -3 -47 -9 -72 -15 -25 -5 -76 -14 -115 -20 -38 -6 -95 -16 -126
-21 -80 -14 -283 -12 -364 4 -231 45 -344 154 -402 391 -11 46 -16 157 -20
483 -3 232 -2 429 1 437 4 12 38 15 196 15 l190 0 0 -396z m9830 -495 c94 -43
140 -112 140 -212 0 -78 -24 -132 -80 -180 -94 -80 -242 -73 -331 16 -42 42
-59 89 -59 166 0 55 5 75 30 118 24 42 40 57 91 82 75 37 142 41 209 10z"/>
<path d="M3060 3171 c-70 -15 -131 -62 -163 -126 -27 -56 -49 -184 -44 -254
17 -215 94 -320 243 -329 171 -11 272 136 261 380 -6 138 -30 209 -90 269 -51
51 -134 75 -207 60z"/>
<path d="M8143 3170 c-40 -16 -100 -86 -117 -135 -27 -80 -42 -75 214 -75
l231 0 -7 38 c-13 73 -69 153 -122 173 -30 11 -170 11 -199 -1z"/>
<path d="M12140 3171 c-86 -18 -153 -82 -185 -177 -28 -83 -28 -277 -1 -349
51 -131 118 -185 230 -185 146 0 230 100 244 288 13 179 -12 288 -81 360 -51
54 -133 78 -207 63z"/>
<path d="M17250 3157 c-19 -12 -43 -30 -52 -39 -24 -24 -58 -102 -58 -132 l0
-26 229 0 229 0 -14 52 c-17 66 -59 125 -104 149 -53 29 -183 26 -230 -4z"/>
</g>
</svg>
