<?xml version="1.0" standalone="no"?>
<!DOCTYPE svg PUBLIC "-//W3C//DTD SVG 20010904//EN"
 "http://www.w3.org/TR/2001/REC-SVG-20010904/DTD/svg10.dtd">
<svg version="1.0" xmlns="http://www.w3.org/2000/svg"
 width="1429.000000pt" height="431.000000pt" viewBox="0 0 1429.000000 431.000000"
 preserveAspectRatio="xMidYMid meet">

<g transform="translate(0.000000,431.000000) scale(0.100000,-0.100000)"
fill="#000000" stroke="none">
<path d="M751 2704 c0 -11 3 -14 6 -6 3 7 2 16 -1 19 -3 4 -6 -2 -5 -13z"/>
<path d="M1097 2683 c25 -61 171 -346 188 -368 8 -11 -30 69 -85 177 -55 109
-100 205 -100 213 0 8 -4 15 -9 15 -6 0 -3 -17 6 -37z"/>
<path d="M1572 2675 c-30 -62 -27 -71 4 -12 14 27 24 51 22 53 -3 2 -14 -17
-26 -41z"/>
<path d="M1888 2659 c-15 -33 -25 -59 -23 -59 8 0 56 101 53 109 -2 5 -15 -18
-30 -50z"/>
<path d="M4992 2675 c-12 -25 -20 -45 -17 -45 7 0 47 81 43 86 -3 2 -14 -17
-26 -41z"/>
<path d="M5292 2695 c0 -16 2 -22 5 -12 2 9 2 23 0 30 -3 6 -5 -1 -5 -18z"/>
<path d="M10660 2595 c-7 -69 -11 -128 -8 -130 2 -3 10 52 17 121 7 69 11 127
8 130 -2 2 -10 -52 -17 -121z"/>
<path d="M10980 2680 c11 -22 23 -40 25 -40 3 0 -4 18 -15 40 -11 22 -23 40
-25 40 -3 0 4 -18 15 -40z"/>
<path d="M7893 2693 c9 -2 25 -2 35 0 9 3 1 5 -18 5 -19 0 -27 -2 -17 -5z"/>
<path d="M7965 2563 l0 -138 157 -3 157 -3 4 -109 3 -110 0 112 -1 113 -157 3
-157 3 -4 134 -3 135 1 -137z"/>
<path d="M4422 2605 c23 -46 44 -83 46 -81 4 5 -76 166 -83 166 -3 0 14 -38
37 -85z"/>
<path d="M7780 2680 c-27 -6 -29 -8 -10 -8 14 -1 43 3 65 7 33 7 35 9 10 9
-16 -1 -46 -4 -65 -8z"/>
<path d="M11549 2599 c-22 -45 -39 -83 -37 -85 2 -2 23 35 46 81 23 47 40 85
37 85 -3 0 -23 -36 -46 -81z"/>
<path d="M799 2594 c23 -45 49 -90 57 -100 8 -11 -6 22 -32 71 -26 50 -52 95
-57 100 -5 6 9 -27 32 -71z"/>
<path d="M5302 2630 c0 -19 3 -60 8 -90 6 -48 7 -50 8 -15 0 22 -3 63 -8 90
-6 40 -7 43 -8 15z"/>
<path d="M7675 2647 c-3 -6 -4 -199 -3 -427 l3 -415 5 428 c3 235 4 427 2 427
-1 0 -5 -6 -7 -13z"/>
<path d="M11046 2553 c14 -32 34 -77 45 -100 10 -24 21 -43 24 -43 2 0 -7 26
-21 58 -14 31 -34 76 -45 100 -10 23 -21 42 -24 42 -2 0 7 -26 21 -57z"/>
<path d="M11901 2584 c0 -11 3 -14 6 -6 3 7 2 16 -1 19 -3 4 -6 -2 -5 -13z"/>
<path d="M1483 2502 c-46 -96 -120 -232 -134 -246 -5 -5 -17 1 -29 15 l-21 24
17 -32 c10 -18 22 -33 25 -33 4 0 37 53 72 118 89 162 129 242 120 242 -5 0
-27 -40 -50 -88z"/>
<path d="M4902 2491 c-23 -49 -42 -93 -42 -98 1 -4 21 34 46 86 24 52 43 96
41 98 -2 2 -23 -37 -45 -86z"/>
<path d="M4057 2548 c-3 -13 -8 -68 -11 -123 l-5 -100 13 120 c13 118 14 149
3 103z"/>
<path d="M1787 2466 c-19 -36 -31 -63 -26 -61 11 7 70 117 65 122 -2 3 -20
-25 -39 -61z"/>
<path d="M11916 2469 c3 -24 11 -120 19 -214 7 -93 13 -141 13 -105 1 84 -22
348 -31 357 -4 3 -4 -13 -1 -38z"/>
<path d="M5323 2435 c0 -27 2 -38 4 -22 2 15 2 37 0 50 -2 12 -4 0 -4 -28z"/>
<path d="M2278 2453 c12 -2 32 -2 45 0 12 2 2 4 -23 4 -25 0 -35 -2 -22 -4z"/>
<path d="M5981 2456 c2 -2 36 -6 74 -9 54 -4 61 -4 30 3 -40 9 -112 13 -104 6z"/>
<path d="M8795 2451 c-16 -3 18 -6 75 -6 73 -1 93 1 65 7 -47 8 -99 8 -140 -1z"/>
<path d="M12598 2453 c12 -2 30 -2 40 0 9 3 -1 5 -23 4 -22 0 -30 -2 -17 -4z"/>
<path d="M2213 2443 c9 -2 23 -2 30 0 6 3 -1 5 -18 5 -16 0 -22 -2 -12 -5z"/>
<path d="M2363 2443 c9 -2 25 -2 35 0 9 3 1 5 -18 5 -19 0 -27 -2 -17 -5z"/>
<path d="M4500 2449 c0 -4 16 -40 35 -80 20 -41 33 -63 29 -49 -7 26 -63 139
-64 129z"/>
<path d="M5933 2443 c9 -2 23 -2 30 0 6 3 -1 5 -18 5 -16 0 -22 -2 -12 -5z"/>
<path d="M6953 2443 c37 -2 97 -2 135 0 37 2 6 3 -68 3 -74 0 -105 -1 -67 -3z"/>
<path d="M9773 2442 c-6 -4 32 -6 85 -4 145 4 161 9 37 10 -60 1 -115 -2 -122
-6z"/>
<path d="M10643 2400 c0 -30 2 -43 4 -27 2 15 2 39 0 55 -2 15 -4 2 -4 -28z"/>
<path d="M12533 2443 c9 -2 23 -2 30 0 6 3 -1 5 -18 5 -16 0 -22 -2 -12 -5z"/>
<path d="M12673 2443 c9 -2 25 -2 35 0 9 3 1 5 -18 5 -19 0 -27 -2 -17 -5z"/>
<path d="M10018 2433 c7 -3 16 -2 19 1 4 3 -2 6 -13 5 -11 0 -14 -3 -6 -6z"/>
<path d="M11446 2381 c-14 -32 -26 -62 -26 -67 1 -5 14 20 31 55 16 35 28 66
26 68 -2 2 -16 -23 -31 -56z"/>
<path d="M925 2363 c20 -38 43 -75 51 -83 8 -8 -6 22 -32 68 -25 45 -48 82
-51 82 -3 0 12 -30 32 -67z"/>
<path d="M2944 2415 c-11 -27 3 -648 15 -680 l11 -30 -6 30 c-3 17 -8 177 -11
358 l-5 327 141 0 141 0 3 -290 2 -290 0 292 0 293 -143 3 c-120 2 -143 0
-148 -13z"/>
<path d="M3495 2418 c-3 -7 -4 -173 -2 -368 l2 -355 3 363 2 362 135 0 135 0
-2 -460 c-2 -252 0 -456 5 -451 4 4 6 212 5 462 l-3 454 -138 3 c-105 2 -139
0 -142 -10z"/>
<path d="M5762 2381 c-22 -16 -43 -36 -48 -43 -4 -7 2 -4 15 6 12 11 38 30 59
42 20 13 32 24 26 24 -6 0 -29 -13 -52 -29z"/>
<path d="M6244 2398 c44 -29 111 -96 138 -137 15 -25 28 -41 28 -35 0 33 -100
144 -152 169 -18 8 -24 10 -14 3z"/>
<path d="M9095 2393 c57 -30 118 -87 156 -146 22 -33 39 -56 39 -51 0 14 -48
84 -84 123 -33 36 -113 91 -130 91 -6 -1 3 -8 19 -17z"/>
<path d="M10142 2390 c0 -14 2 -19 5 -12 2 6 2 18 0 25 -3 6 -5 1 -5 -13z"/>
<path d="M2055 2388 c-27 -14 -112 -96 -138 -133 -12 -16 10 2 48 41 39 39 81
78 95 87 28 18 25 22 -5 5z"/>
<path d="M6635 2388 c-3 -7 -4 -215 -3 -463 l3 -450 148 -3 c135 -2 147 -1
146 15 0 11 -3 13 -6 6 -3 -10 -42 -13 -144 -13 l-139 0 2 460 c2 253 2 460 0
460 -1 0 -5 -6 -7 -12z"/>
<path d="M8605 2381 c-39 -24 -128 -119 -149 -159 -27 -52 -18 -50 13 3 27 48
98 121 151 157 34 23 22 22 -15 -1z"/>
<path d="M2597 2351 c48 -39 84 -84 117 -146 8 -16 15 -26 16 -22 1 37 -138
207 -171 207 -6 0 11 -18 38 -39z"/>
<path d="M7340 2359 c20 -19 46 -47 59 -64 l23 -30 -17 30 c-23 39 -55 74 -80
87 -11 6 -4 -5 15 -23z"/>
<path d="M12860 2386 c0 -2 8 -10 18 -17 15 -13 16 -12 3 4 -13 16 -21 21 -21
13z"/>
<path d="M11133 2367 c18 -50 80 -187 83 -184 4 4 -74 189 -83 197 -4 3 -3 -3
0 -13z"/>
<path d="M12339 2363 c-13 -16 -12 -17 4 -4 16 13 21 21 13 21 -2 0 -10 -8
-17 -17z"/>
<path d="M1720 2350 c-6 -11 -8 -20 -6 -20 3 0 10 9 16 20 6 11 8 20 6 20 -3
0 -10 -9 -16 -20z"/>
<path d="M5333 2320 c0 -30 2 -43 4 -27 2 15 2 39 0 55 -2 15 -4 2 -4 -28z"/>
<path d="M9515 1925 c0 -242 1 -340 2 -217 2 123 2 321 0 440 -1 119 -2 19 -2
-223z"/>
<path d="M12920 2335 c13 -14 26 -25 28 -25 3 0 -5 11 -18 25 -13 14 -26 25
-28 25 -3 0 5 -11 18 -25z"/>
<path d="M10131 2334 c0 -11 3 -14 6 -6 3 7 2 16 -1 19 -3 4 -6 -2 -5 -13z"/>
<path d="M12294 2328 l-19 -23 23 19 c21 18 27 26 19 26 -2 0 -12 -10 -23 -22z"/>
<path d="M4811 2296 c-27 -61 -36 -101 -10 -46 28 61 39 90 34 90 -2 0 -13
-20 -24 -44z"/>
<path d="M5658 2283 c-37 -50 -58 -86 -58 -100 0 -4 12 12 27 37 14 25 34 54
43 65 19 22 33 45 28 45 -2 0 -20 -21 -40 -47z"/>
<path d="M10633 2280 c0 -30 2 -43 4 -27 2 15 2 39 0 55 -2 15 -4 2 -4 -28z"/>
<path d="M4033 2260 c0 -36 2 -50 4 -32 2 17 2 47 0 65 -2 17 -4 3 -4 -33z"/>
<path d="M10116 2269 c-4 -23 -5 -44 -2 -46 2 -2 7 14 11 37 4 23 5 43 2 46
-2 3 -7 -14 -11 -37z"/>
<path d="M1674 2268 c-9 -18 -24 -43 -32 -55 -8 -13 -12 -23 -8 -23 7 0 49 67
59 93 11 29 -1 19 -19 -15z"/>
<path d="M12950 2296 c0 -2 8 -10 18 -17 15 -13 16 -12 3 4 -13 16 -21 21 -21
13z"/>
<path d="M11396 2265 c-9 -26 -7 -32 5 -12 6 10 9 21 6 23 -2 3 -7 -2 -11 -11z"/>
<path d="M4311 2229 c1 -33 3 -38 8 -20 5 20 10 14 29 -42 13 -36 30 -74 38
-84 7 -10 -4 27 -26 81 -22 55 -42 102 -45 104 -3 3 -5 -15 -4 -39z"/>
<path d="M11648 2255 c-3 -11 -9 -29 -13 -40 -3 -11 1 -7 10 8 9 16 15 33 12
40 -2 6 -6 3 -9 -8z"/>
<path d="M1000 2240 c6 -11 13 -20 16 -20 2 0 0 9 -6 20 -6 11 -13 20 -16 20
-2 0 0 -9 6 -20z"/>
<path d="M5057 2198 c2 -29 8 -96 13 -148 7 -83 8 -77 3 45 -3 77 -8 144 -12
148 -4 4 -6 -16 -4 -45z"/>
<path d="M7437 2210 c15 -39 18 -91 21 -387 l3 -343 -134 0 -135 0 -4 303 c-4
326 -10 365 -61 396 l-22 14 22 -24 c44 -48 47 -70 51 -391 l4 -308 145 0 144
0 -3 348 c-4 342 -9 393 -40 427 -5 5 -1 -10 9 -35z"/>
<path d="M10906 2209 c-4 -23 -5 -43 -4 -45 7 -7 24 66 18 76 -4 7 -10 -7 -14
-31z"/>
<path d="M12215 2227 c-20 -31 -55 -135 -54 -161 0 -12 7 4 15 34 8 30 25 76
38 103 25 51 25 61 1 24z"/>
<path d="M5342 2210 c0 -19 2 -27 5 -17 2 9 2 25 0 35 -3 9 -5 1 -5 -18z"/>
<path d="M1881 2203 c-14 -28 -41 -125 -40 -147 0 -12 9 11 19 51 10 40 24 81
30 93 6 11 8 20 6 20 -3 0 -9 -8 -15 -17z"/>
<path d="M11663 2155 c0 -38 2 -53 4 -32 2 20 2 52 0 70 -2 17 -4 1 -4 -38z"/>
<path d="M2298 2203 c6 -2 18 -2 25 0 6 3 1 5 -13 5 -14 0 -19 -2 -12 -5z"/>
<path d="M8858 2203 c6 -2 18 -2 25 0 6 3 1 5 -13 5 -14 0 -19 -2 -12 -5z"/>
<path d="M10100 2198 c0 -9 -6 -19 -12 -21 -10 -4 -10 -6 0 -6 14 -1 28 26 18
36 -3 4 -6 -1 -6 -9z"/>
<path d="M10934 2200 c14 -45 90 -220 93 -217 4 5 -62 170 -83 205 -8 15 -13
20 -10 12z"/>
<path d="M12685 2195 c11 -9 25 -19 32 -23 6 -4 21 -27 32 -52 11 -25 21 -39
21 -32 0 28 -40 88 -72 105 -26 14 -29 15 -13 2z"/>
<path d="M4619 2178 c22 -55 40 -92 41 -82 0 14 -39 104 -45 104 -3 0 -1 -10
4 -22z"/>
<path d="M5908 2177 c-29 -24 -53 -65 -44 -75 3 -3 6 0 6 6 0 7 16 30 36 52
41 45 42 51 2 17z"/>
<path d="M9810 2190 c-8 -5 -10 -10 -5 -10 6 0 17 5 25 10 8 5 11 10 5 10 -5
0 -17 -5 -25 -10z"/>
<path d="M10621 2184 c0 -11 3 -14 6 -6 3 7 2 16 -1 19 -3 4 -6 -2 -5 -13z"/>
<path d="M12512 2184 c-28 -19 -62 -85 -61 -116 1 -17 3 -15 9 9 9 39 35 82
64 105 26 22 18 23 -12 2z"/>
<path d="M13015 2185 c7 -21 22 -93 29 -135 2 -14 2 1 0 32 -2 31 -11 72 -19
90 -8 18 -13 24 -10 13z"/>
<path d="M1049 2153 c11 -23 26 -45 33 -49 6 -4 1 10 -12 32 -33 56 -46 66
-21 17z"/>
<path d="M4023 2120 c0 -41 2 -58 4 -37 2 20 2 54 0 75 -2 20 -4 3 -4 -38z"/>
<path d="M6125 2170 c10 -11 20 -20 23 -20 3 0 -3 9 -13 20 -10 11 -20 20 -23
20 -3 0 3 -9 13 -20z"/>
<path d="M7962 2005 c-2 -201 5 -250 40 -281 19 -17 19 -16 -3 14 -23 32 -24
42 -30 245 l-5 212 -2 -190z"/>
<path d="M8970 2165 c13 -14 26 -25 28 -25 3 0 -5 11 -18 25 -13 14 -26 25
-28 25 -3 0 5 -11 18 -25z"/>
<path d="M11349 2163 c-52 -136 -58 -155 -39 -123 14 24 60 150 54 150 -2 0
-9 -12 -15 -27z"/>
<path d="M11607 2148 c-22 -54 -16 -60 8 -8 10 22 16 42 13 45 -3 3 -12 -14
-21 -37z"/>
<path d="M1597 2143 c-55 -89 -68 -113 -64 -113 3 0 20 24 38 53 17 28 38 62
47 75 8 12 12 22 8 22 -3 0 -16 -17 -29 -37z"/>
<path d="M2177 2150 c-40 -47 -52 -96 -51 -205 0 -108 21 -173 67 -212 22 -18
22 -18 6 2 -82 100 -91 304 -18 404 34 48 32 54 -4 11z"/>
<path d="M2416 2152 c10 -19 25 -39 33 -45 9 -8 8 0 -5 21 -10 19 -25 39 -33
45 -9 8 -8 0 5 -21z"/>
<path d="M5000 2128 c-29 -68 -52 -134 -44 -125 9 9 74 171 70 174 -2 2 -13
-20 -26 -49z"/>
<path d="M8748 2163 c-18 -21 -31 -43 -25 -43 2 0 13 14 25 30 25 33 24 41 0
13z"/>
<path d="M2730 2165 c0 -5 5 -17 10 -25 5 -8 10 -10 10 -5 0 6 -5 17 -10 25
-5 8 -10 11 -10 5z"/>
<path d="M4295 2023 c-4 -81 -11 -236 -14 -343 l-6 -195 -145 -5 -145 -6 140
-2 c99 -1 145 2 153 10 8 8 12 49 12 120 0 59 5 209 11 334 6 124 9 228 6 230
-3 3 -8 -61 -12 -143z"/>
<path d="M5583 2155 c-3 -9 -3 -18 -1 -21 3 -3 8 4 11 16 6 23 -1 27 -10 5z"/>
<path d="M6431 2134 c0 -11 3 -14 6 -6 3 7 2 16 -1 19 -3 4 -6 -2 -5 -13z"/>
<path d="M8410 2113 c-6 -21 -13 -83 -15 -138 l-4 -100 8 95 c5 52 13 113 20
134 6 22 9 42 6 44 -2 2 -9 -13 -15 -35z"/>
<path d="M6150 2135 c0 -5 5 -17 10 -25 5 -8 10 -10 10 -5 0 6 -5 17 -10 25
-5 8 -10 11 -10 5z"/>
<path d="M9019 2085 c8 -24 17 -42 19 -40 6 5 -18 74 -27 80 -5 2 -1 -15 8
-40z"/>
<path d="M5566 2098 c-4 -13 -8 -70 -11 -128 l-4 -105 8 95 c5 53 12 110 16
128 8 36 1 44 -9 10z"/>
<path d="M9316 2105 c3 -11 10 -74 14 -140 l8 -120 -2 120 c-1 77 -7 127 -15
140 l-13 20 8 -20z"/>
<path d="M11250 2099 c0 -13 42 -101 47 -96 2 3 -7 27 -21 54 -14 26 -25 45
-26 42z"/>
<path d="M1096 2078 c4 -7 24 -38 43 -68 l36 -55 5 -240 5 -240 145 0 145 -1
-142 3 -143 4 0 231 0 231 -46 74 c-25 40 -48 73 -50 73 -3 0 -2 -6 2 -12z"/>
<path d="M5852 2070 c0 -14 2 -19 5 -12 2 6 2 18 0 25 -3 6 -5 1 -5 -13z"/>
<path d="M8695 2060 c-4 -17 -5 -34 -2 -36 2 -3 7 10 11 27 8 42 0 50 -9 9z"/>
<path d="M4661 2075 c0 -5 8 -25 18 -43 l17 -34 17 44 c13 34 13 39 2 24 -8
-11 -15 -27 -15 -35 -1 -9 -9 0 -20 19 -11 19 -19 31 -19 25z"/>
<path d="M6171 2064 c0 -11 3 -14 6 -6 3 7 2 16 -1 19 -3 4 -6 -2 -5 -13z"/>
<path d="M11677 1850 c3 -129 9 -264 13 -300 8 -75 1 197 -10 400 -6 97 -6 69
-3 -100z"/>
<path d="M11953 2015 c0 -38 2 -53 4 -32 2 20 2 52 0 70 -2 17 -4 1 -4 -38z"/>
<path d="M10611 2044 c0 -11 3 -14 6 -6 3 7 2 16 -1 19 -3 4 -6 -2 -5 -13z"/>
<path d="M4013 1970 c0 -41 2 -58 4 -37 2 20 2 54 0 75 -2 20 -4 3 -4 -38z"/>
<path d="M1833 1950 c0 -47 2 -66 4 -42 2 23 2 61 0 85 -2 23 -4 4 -4 -43z"/>
<path d="M9043 1955 c0 -44 2 -61 4 -37 2 23 2 59 0 80 -2 20 -4 1 -4 -43z"/>
<path d="M10892 2010 c0 -14 2 -19 5 -12 2 6 2 18 0 25 -3 6 -5 1 -5 -13z"/>
<path d="M6453 1965 c0 -33 2 -45 4 -27 2 18 2 45 0 60 -2 15 -4 0 -4 -33z"/>
<path d="M8683 1955 c0 -33 2 -45 4 -27 2 18 2 45 0 60 -2 15 -4 0 -4 -33z"/>
<path d="M4430 1986 c0 -13 62 -161 72 -171 6 -5 2 8 -7 30 -9 22 -26 63 -37
90 -20 50 -28 65 -28 51z"/>
<path d="M11502 1902 c-18 -42 -28 -72 -23 -67 12 13 63 136 58 141 -2 2 -18
-31 -35 -74z"/>
<path d="M1485 1959 c-4 -6 -5 -12 -2 -15 2 -3 7 2 10 11 7 17 1 20 -8 4z"/>
<path d="M5362 1930 c0 -14 2 -19 5 -12 2 6 2 18 0 25 -3 6 -5 1 -5 -13z"/>
<path d="M5072 1920 c0 -14 2 -19 5 -12 2 6 2 18 0 25 -3 6 -5 1 -5 -13z"/>
<path d="M4905 1909 c-4 -6 -5 -12 -2 -15 2 -3 7 2 10 11 7 17 1 20 -8 4z"/>
<path d="M11963 1850 c0 -41 2 -58 4 -37 2 20 2 54 0 75 -2 20 -4 3 -4 -38z"/>
<path d="M11060 1905 c0 -5 5 -17 10 -25 5 -8 10 -10 10 -5 0 6 -5 17 -10 25
-5 8 -10 11 -10 5z"/>
<path d="M13041 1888 l-1 -28 -294 0 c-162 0 -297 -3 -300 -8 -5 -9 22 -77 29
-70 3 3 -1 18 -10 34 l-15 29 296 3 c312 2 313 3 301 49 -3 12 -5 8 -6 -9z"/>
<path d="M10602 1880 c0 -14 2 -19 5 -12 2 6 2 18 0 25 -3 6 -5 1 -5 -13z"/>
<path d="M8692 1865 c0 -16 2 -22 5 -12 2 9 2 23 0 30 -3 6 -5 -1 -5 -18z"/>
<path d="M4862 1803 c-17 -42 -30 -79 -28 -81 2 -1 18 31 36 73 17 43 30 79
28 81 -2 2 -18 -31 -36 -73z"/>
<path d="M5083 1845 c0 -22 2 -30 4 -17 2 12 2 30 0 40 -3 9 -5 -1 -4 -23z"/>
<path d="M4003 1795 c0 -44 2 -61 4 -37 2 23 2 59 0 80 -2 20 -4 1 -4 -43z"/>
<path d="M6145 1860 l-300 -5 297 -3 c190 -1 299 2 303 8 3 6 5 9 3 8 -2 -2
-138 -5 -303 -8z"/>
<path d="M8401 1850 c-1 -26 18 -105 24 -98 1 1 -3 30 -10 63 -7 33 -14 49
-14 35z"/>
<path d="M9031 1854 c0 -11 3 -14 6 -6 3 7 2 16 -1 19 -3 4 -6 -2 -5 -13z"/>
<path d="M1841 1844 c-1 -22 28 -128 34 -122 1 1 -5 35 -15 73 -11 39 -19 61
-19 49z"/>
<path d="M5561 1842 c-1 -33 20 -111 32 -119 6 -3 7 -1 3 6 -4 6 -13 39 -21
74 -7 34 -14 52 -14 39z"/>
<path d="M11085 1842 c11 -37 54 -132 59 -132 5 0 -53 142 -61 150 -3 3 -2 -6
2 -18z"/>
<path d="M9322 1820 c0 -14 2 -19 5 -12 2 6 2 18 0 25 -3 6 -5 1 -5 -13z"/>
<path d="M12162 1820 c0 -14 2 -19 5 -12 2 6 2 18 0 25 -3 6 -5 1 -5 -13z"/>
<path d="M3245 1800 c3 -19 10 -39 15 -44 7 -7 7 -1 1 19 -17 54 -21 61 -16
25z"/>
<path d="M8700 1826 c-1 -32 90 -139 105 -124 2 2 -9 12 -25 23 -16 11 -40 40
-54 65 -14 25 -26 41 -26 36z"/>
<path d="M2450 1803 c0 -6 -12 -28 -26 -49 -15 -21 -19 -32 -10 -24 21 17 49
70 42 78 -3 3 -6 1 -6 -5z"/>
<path d="M5868 1795 c11 -22 48 -58 72 -69 8 -4 4 1 -10 13 -14 11 -35 32 -48
48 -14 16 -19 19 -14 8z"/>
<path d="M9006 1783 c-6 -14 -5 -15 5 -6 7 7 10 15 7 18 -3 3 -9 -2 -12 -12z"/>
<path d="M10211 1791 c-8 -5 5 -7 35 -4 68 6 77 11 24 12 -25 0 -51 -3 -59 -8z"/>
<path d="M10883 1765 c0 -22 2 -30 4 -17 2 12 2 30 0 40 -3 9 -5 -1 -4 -23z"/>
<path d="M7681 1762 c-1 -39 18 -120 30 -128 5 -3 4 7 -2 23 -6 15 -14 53 -18
83 -6 39 -9 45 -10 22z"/>
<path d="M10320 1786 c0 -2 7 -7 16 -10 8 -3 12 -2 9 4 -6 10 -25 14 -25 6z"/>
<path d="M12171 1774 c0 -11 3 -14 6 -6 3 7 2 16 -1 19 -3 4 -6 -2 -5 -13z"/>
<path d="M5372 1755 c0 -16 2 -22 5 -12 2 9 2 23 0 30 -3 6 -5 -1 -5 -18z"/>
<path d="M10148 1759 c-10 -5 -23 -20 -28 -32 -10 -20 -10 -21 4 -4 8 10 23
25 33 32 21 17 16 19 -9 4z"/>
<path d="M11436 1755 c-9 -26 -7 -32 5 -12 6 10 9 21 6 23 -2 3 -7 -2 -11 -11z"/>
<path d="M8984 1749 c-3 -6 -20 -19 -38 -30 -17 -10 -25 -19 -19 -19 13 0 83
59 71 60 -4 0 -10 -5 -14 -11z"/>
<path d="M10395 1740 c10 -11 20 -20 23 -20 3 0 -3 9 -13 20 -10 11 -20 20
-23 20 -3 0 3 -9 13 -20z"/>
<path d="M4530 1748 c0 -11 50 -118 55 -118 2 0 -7 26 -20 57 -24 54 -35 73
-35 61z"/>
<path d="M12181 1742 c-1 -19 25 -79 39 -87 6 -4 3 10 -8 31 -11 22 -22 46
-25 54 -3 10 -6 11 -6 2z"/>
<path d="M2706 1680 c-26 -54 -83 -118 -146 -163 -24 -17 -24 -17 8 0 49 26
130 116 153 169 30 67 19 62 -15 -6z"/>
<path d="M6354 1724 c9 -8 17 -30 17 -47 2 -30 2 -30 6 -5 5 29 -11 68 -28 68
-6 0 -3 -7 5 -16z"/>
<path d="M11973 1665 c0 -44 2 -61 4 -37 2 23 2 59 0 80 -2 20 -4 1 -4 -43z"/>
<path d="M10586 1684 c-3 -26 -4 -49 -2 -52 3 -2 8 17 11 43 4 25 5 48 3 51
-3 2 -8 -17 -12 -42z"/>
<path d="M2227 1709 c7 -7 15 -10 18 -7 3 3 -2 9 -12 12 -14 6 -15 5 -6 -5z"/>
<path d="M3307 1709 c7 -7 15 -10 18 -7 3 3 -2 9 -12 12 -14 6 -15 5 -6 -5z"/>
<path d="M8274 1713 c4 -7 11 -32 16 -55 l9 -43 -3 44 c-3 24 -10 49 -17 55
-9 8 -10 8 -5 -1z"/>
<path d="M8440 1714 c0 -6 7 -19 16 -30 14 -18 14 -18 3 6 -14 31 -19 36 -19
24z"/>
<path d="M11407 1685 c-9 -20 -17 -41 -17 -48 0 -7 9 8 20 32 24 52 21 66 -3
16z"/>
<path d="M12961 1704 c0 -11 3 -14 6 -6 3 7 2 16 -1 19 -3 4 -6 -2 -5 -13z"/>
<path d="M1880 1701 c0 -6 4 -13 10 -16 6 -3 7 1 4 9 -7 18 -14 21 -14 7z"/>
<path d="M9267 1674 c-10 -20 -41 -61 -69 -92 l-52 -57 48 45 c45 43 103 126
94 135 -2 3 -12 -11 -21 -31z"/>
<path d="M12808 1703 c7 -3 16 -2 19 1 4 3 -2 6 -13 5 -11 0 -14 -3 -6 -6z"/>
<path d="M2268 1693 c7 -3 16 -2 19 1 4 3 -2 6 -13 5 -11 0 -14 -3 -6 -6z"/>
<path d="M2318 1693 c6 -2 18 -2 25 0 6 3 1 5 -13 5 -14 0 -19 -2 -12 -5z"/>
<path d="M5610 1680 c6 -11 13 -20 16 -20 2 0 0 9 -6 20 -6 11 -13 20 -16 20
-2 0 0 -9 6 -20z"/>
<path d="M6038 1693 c6 -2 18 -2 25 0 6 3 1 5 -13 5 -14 0 -19 -2 -12 -5z"/>
<path d="M8058 1693 c6 -2 18 -2 25 0 6 3 1 5 -13 5 -14 0 -19 -2 -12 -5z"/>
<path d="M8128 1693 c7 -3 16 -2 19 1 4 3 -2 6 -13 5 -11 0 -14 -3 -6 -6z"/>
<path d="M8828 1693 c7 -3 16 -2 19 1 4 3 -2 6 -13 5 -11 0 -14 -3 -6 -6z"/>
<path d="M8888 1693 c7 -3 16 -2 19 1 4 3 -2 6 -13 5 -11 0 -14 -3 -6 -6z"/>
<path d="M10094 1685 c-4 -9 -4 -45 -2 -80 3 -55 8 -69 33 -96 32 -32 75 -59
97 -59 7 0 -5 9 -27 19 -22 10 -51 31 -65 45 -22 25 -25 36 -25 107 0 43 -1
79 -3 79 -1 0 -5 -7 -8 -15z"/>
<path d="M3993 1605 c0 -44 2 -61 4 -37 2 23 2 59 0 80 -2 20 -4 1 -4 -43z"/>
<path d="M1910 1652 c0 -17 96 -116 131 -135 33 -17 33 -17 9 0 -52 38 -84 69
-111 107 -16 21 -29 34 -29 28z"/>
<path d="M8479 1643 c6 -10 22 -31 36 -48 20 -23 19 -18 -6 18 -32 46 -49 63
-30 30z"/>
<path d="M10443 1620 c0 -25 2 -35 4 -22 2 12 2 32 0 45 -2 12 -4 2 -4 -23z"/>
<path d="M2990 1644 c0 -15 52 -85 81 -109 15 -12 12 -6 -8 15 -17 19 -40 51
-52 70 -11 19 -21 30 -21 24z"/>
<path d="M6384 1573 c1 -42 5 -68 10 -63 5 5 5 35 -1 72 l-10 63 1 -72z"/>
<path d="M12252 1611 c13 -19 40 -46 59 -59 l34 -24 -31 28 c-17 16 -44 43
-59 59 l-28 30 25 -34z"/>
<path d="M5662 1598 c8 -12 25 -28 39 -37 18 -11 16 -6 -10 22 -39 42 -50 48
-29 15z"/>
<path d="M10584 1545 l1 -70 144 0 c109 0 145 3 147 13 1 7 0 8 -3 2 -3 -6
-59 -10 -143 -10 l-139 0 -4 68 -3 67 0 -70z"/>
<path d="M8302 1595 c-1 -11 3 -38 7 -60 7 -34 9 -35 9 -10 0 35 -15 101 -16
70z"/>
<path d="M5093 1560 c0 -25 2 -35 4 -22 2 12 2 32 0 45 -2 12 -4 2 -4 -23z"/>
<path d="M5381 1569 c1 -19 5 -45 9 -59 6 -16 7 -6 3 30 -7 63 -13 80 -12 29z"/>
<path d="M7739 1583 c5 -10 22 -29 37 -43 24 -22 23 -20 -6 18 -35 44 -47 54
-31 25z"/>
<path d="M10394 1506 c-17 -18 -46 -37 -65 -44 -31 -11 -32 -11 -4 -6 35 6 72
31 93 62 20 30 13 27 -24 -12z"/>
<path d="M12357 1519 c7 -7 15 -10 18 -7 3 3 -2 9 -12 12 -14 6 -15 5 -6 -5z"/>
<path d="M12986 1513 c-6 -14 -5 -15 5 -6 7 7 10 15 7 18 -3 3 -9 -2 -12 -12z"/>
<path d="M2095 1489 c6 -9 75 -33 80 -27 2 2 -16 11 -40 19 -25 9 -42 13 -40
8z"/>
<path d="M2470 1480 c-30 -11 -48 -19 -39 -19 20 -1 81 19 94 30 11 11 13 11
-55 -11z"/>
<path d="M3665 1484 l-60 -13 54 5 c30 3 62 9 70 14 20 12 11 11 -64 -6z"/>
<path d="M5815 1490 c5 -9 94 -34 100 -29 2 2 -21 11 -50 20 -30 9 -52 13 -50
9z"/>
<path d="M8260 1484 c-33 -13 -33 -14 -5 -8 17 3 34 10 40 15 11 11 8 11 -35
-7z"/>
<path d="M8656 1488 c6 -9 114 -42 119 -36 2 2 -25 13 -60 24 -35 11 -61 16
-59 12z"/>
<path d="M9035 1479 c-27 -10 -38 -17 -23 -14 35 7 78 23 78 30 0 3 -1 5 -2 4
-2 0 -25 -9 -53 -20z"/>
<path d="M11980 1490 c0 -5 -59 -11 -142 -13 l-143 -3 148 -2 c125 -2 147 0
147 13 0 8 -2 15 -5 15 -3 0 -5 -4 -5 -10z"/>
<path d="M12420 1485 c14 -7 43 -16 65 -19 32 -5 28 -3 -20 14 -70 23 -79 24
-45 5z"/>
<path d="M12915 1485 c-22 -8 -31 -14 -20 -14 11 0 34 6 50 14 38 17 22 17
-30 0z"/>
<path d="M3168 1478 c5 -5 16 -8 23 -6 8 3 3 7 -10 11 -17 4 -21 3 -13 -5z"/>
<path d="M5100 1478 c0 -5 66 -7 148 -6 148 2 130 5 -51 10 -53 2 -97 0 -97
-4z"/>
<path d="M6270 1475 c-38 -9 -46 -13 -25 -13 17 0 48 5 70 13 50 16 27 16 -45
0z"/>
<path d="M7866 1480 c5 -5 25 -12 44 -15 36 -5 29 -1 -25 16 -20 6 -26 6 -19
-1z"/>
<path d="M9660 1480 l-145 -6 148 -2 c93 -1 147 2 147 8 0 6 -1 9 -2 8 -2 -1
-68 -5 -148 -8z"/>
<path d="M3218 1463 c6 -2 18 -2 25 0 6 3 1 5 -13 5 -14 0 -19 -2 -12 -5z"/>
<path d="M3553 1463 c9 -2 25 -2 35 0 9 3 1 5 -18 5 -19 0 -27 -2 -17 -5z"/>
<path d="M8188 1463 c6 -2 18 -2 25 0 6 3 1 5 -13 5 -14 0 -19 -2 -12 -5z"/>
<path d="M12833 1463 c9 -2 23 -2 30 0 6 3 -1 5 -18 5 -16 0 -22 -2 -12 -5z"/>
<path d="M2198 1453 c7 -3 16 -2 19 1 4 3 -2 6 -13 5 -11 0 -14 -3 -6 -6z"/>
<path d="M3268 1453 c6 -2 18 -2 25 0 6 3 1 5 -13 5 -14 0 -19 -2 -12 -5z"/>
<path d="M5938 1453 c7 -3 16 -2 19 1 4 3 -2 6 -13 5 -11 0 -14 -3 -6 -6z"/>
<path d="M6178 1453 c7 -3 16 -2 19 1 4 3 -2 6 -13 5 -11 0 -14 -3 -6 -6z"/>
<path d="M7958 1453 c6 -2 18 -2 25 0 6 3 1 5 -13 5 -14 0 -19 -2 -12 -5z"/>
<path d="M8138 1453 c6 -2 18 -2 25 0 6 3 1 5 -13 5 -14 0 -19 -2 -12 -5z"/>
<path d="M8958 1453 c7 -3 16 -2 19 1 4 3 -2 6 -13 5 -11 0 -14 -3 -6 -6z"/>
<path d="M12538 1453 c7 -3 16 -2 19 1 4 3 -2 6 -13 5 -11 0 -14 -3 -6 -6z"/>
<path d="M12778 1453 c7 -3 16 -2 19 1 4 3 -2 6 -13 5 -11 0 -14 -3 -6 -6z"/>
</g>
</svg>
