<?xml version="1.0" encoding="UTF-8"?>
<svg version="1.1" xmlns="http://www.w3.org/2000/svg" width="1832" height="566">
<path d="M0 0 C4.48391036 -0.14854953 8.96651118 -0.25730304 13.45214844 -0.32958984 C14.97714183 -0.35972677 16.50196237 -0.40064608 18.02636719 -0.45263672 C20.22113641 -0.52560493 22.41361251 -0.5594814 24.609375 -0.5859375 C25.2886908 -0.61690521 25.96800659 -0.64787292 26.66790771 -0.67977905 C28.60839844 -0.68115234 28.60839844 -0.68115234 32 0 C34.32983398 2.77319336 34.32983398 2.77319336 36 6 C36.57874878 7.08269165 36.57874878 7.08269165 37.16918945 8.18725586 C37.48073975 8.85635986 37.79229004 9.52546387 38.11328125 10.21484375 C38.47075439 10.97611572 38.82822754 11.7373877 39.1965332 12.52172852 C39.74893677 13.7175354 39.74893677 13.7175354 40.3125 14.9375 C40.70203857 15.77144287 41.09157715 16.60538574 41.49291992 17.46459961 C42.28626648 19.1639794 43.07770484 20.8642514 43.8671875 22.56542969 C44.90239742 24.79023859 45.9482185 27.0095513 47 29.2265625 C49.82799393 35.20141844 52.52309786 41.18414124 54.91015625 47.3515625 C56.57710937 51.40243782 58.47519017 55.34380029 60.35009766 59.30126953 C62.75465546 64.40267337 64.94786989 69.57252456 67.0546875 74.8046875 C67.81153275 76.93479814 67.81153275 76.93479814 69 78 C69.22139648 77.44127197 69.44279297 76.88254395 69.67089844 76.30688477 C70.69536481 73.72466449 71.7226677 71.14358134 72.75 68.5625 C73.09804687 67.68400391 73.44609375 66.80550781 73.8046875 65.90039062 C77.25429902 57.24442099 81.05719055 48.78624132 85.0625 40.375 C85.44172607 39.57739258 85.82095215 38.77978516 86.21166992 37.95800781 C87.03315197 36.23118859 87.85519247 34.50463494 88.67773438 32.77832031 C90.08563755 29.82005995 91.48816819 26.85928339 92.890625 23.8984375 C93.86438936 21.84886616 94.83834455 19.79938548 95.8125 17.75 C96.26826416 16.78626465 96.72402832 15.8225293 97.19360352 14.82958984 C97.63115967 13.91129395 98.06871582 12.99299805 98.51953125 12.046875 C98.90214111 11.24088867 99.28475098 10.43490234 99.67895508 9.60449219 C101.33457348 6.34037518 103.18413609 3.17776185 105 0 C114.9 0 124.8 0 135 0 C136.61508076 4.84524228 137.38319817 8.29377437 137.81640625 13.26171875 C137.87779282 13.93419144 137.93917938 14.60666412 138.00242615 15.29951477 C138.19589603 17.4283019 138.37985427 19.55775915 138.5625 21.6875 C138.74998421 23.82780433 138.9395665 25.96787097 139.13328552 28.10762024 C139.30776602 30.04097932 139.47547105 31.97494632 139.64282227 33.90893555 C139.89650112 37.03157025 139.89650112 37.03157025 141 40 C141.19685407 42.07131407 141.34413203 44.14746658 141.46484375 46.22460938 C141.58001343 48.15306702 141.58001343 48.15306702 141.69750977 50.1204834 C141.77753807 51.52823714 141.85753398 52.93599272 141.9375 54.34375 C142.02295047 55.79287066 142.10881293 57.24196707 142.19506836 58.69104004 C142.42173418 62.51379946 142.64380731 66.33681087 142.86462402 70.15991211 C143.21693642 76.24992896 143.57534679 82.33958606 143.93533325 88.42915344 C144.05945899 90.5419868 144.18113484 92.65495029 144.30249023 94.76794434 C144.69289502 101.43329691 145.15463473 108.07766616 145.79025269 114.72415161 C146.04084692 117.44320664 146.20067397 120.15874369 146.31640625 122.88671875 C146.35830078 123.84384766 146.40019531 124.80097656 146.44335938 125.78710938 C146.48267578 126.74423828 146.52199219 127.70136719 146.5625 128.6875 C146.60568359 129.68716797 146.64886719 130.68683594 146.69335938 131.71679688 C146.79789912 134.14444217 146.90008495 136.57216074 147 139 C144.14992869 140.42503565 141.71379745 140.12980035 138.53125 140.1328125 C137.23832031 140.13410156 135.94539063 140.13539063 134.61328125 140.13671875 C133.93861816 140.13462402 133.26395508 140.1325293 132.56884766 140.13037109 C130.50806311 140.12502093 128.44749651 140.13032035 126.38671875 140.13671875 C124.44732422 140.13478516 124.44732422 140.13478516 122.46875 140.1328125 C121.27701172 140.13168457 120.08527344 140.13055664 118.85742188 140.12939453 C116 140 116 140 114 139 C111.50586895 125.52494276 112.36842652 110.76546796 111.875 97.10083008 C111.75327077 93.75589143 111.62687291 90.41115317 111.5 87.06640625 C111.46455078 86.04446671 111.42910156 85.02252716 111.39257812 83.96961975 C111.21067722 79.2232179 110.89112434 74.67651011 110 70 C109.87012832 68.64013079 109.76184535 67.27787612 109.68359375 65.9140625 C109.64169922 65.21152344 109.59980469 64.50898438 109.55664062 63.78515625 C109.51732422 63.07230469 109.47800781 62.35945313 109.4375 61.625 C109.39431641 60.88894531 109.35113281 60.15289062 109.30664062 59.39453125 C109.20156201 57.59651932 109.10037907 55.79828042 109 54 C108.71801758 54.71019287 108.43603516 55.42038574 108.14550781 56.15209961 C106.84887796 59.41464757 105.54945866 62.67607777 104.25 65.9375 C103.58484375 67.61295898 103.58484375 67.61295898 102.90625 69.32226562 C100.39815917 75.61093455 97.79810279 81.83525872 95 88 C94.37360457 89.41605021 93.74845456 90.83265253 93.125 92.25 C91.46224752 96.00101249 89.73485586 99.71932901 88 103.4375 C85.76306972 108.26247368 83.68483086 113.11632213 81.76171875 118.07421875 C81 120 81 120 80 122 C72.08 122 64.16 122 56 122 C54.68 119.03 53.36 116.06 52 113 C51.35289063 111.54851562 50.70578125 110.09703125 50.0390625 108.6015625 C47.34976331 102.54998468 44.71794926 96.47348831 42.08447266 90.39746094 C39.7818778 85.08792826 37.46660006 79.78464904 35.125 74.4921875 C34.66432129 73.44627441 34.20364258 72.40036133 33.72900391 71.32275391 C32.83982626 69.30486897 31.94640202 67.28884892 31.04833984 65.27490234 C30.64824707 64.36434082 30.2481543 63.4537793 29.8359375 62.515625 C29.48063965 61.71415039 29.1253418 60.91267578 28.75927734 60.08691406 C28 58 28 58 28 55 C27.34 55 26.68 55 26 55 C25.97716446 55.58136215 25.95432892 56.1627243 25.93080139 56.76170349 C25.69119118 62.84576928 25.44708529 68.9296432 25.20043945 75.01342773 C25.10913078 77.27998368 25.01894513 79.54658518 24.92993164 81.81323242 C24.80133895 85.08264764 24.66862728 88.35187448 24.53515625 91.62109375 C24.47727684 93.12632851 24.47727684 93.12632851 24.41822815 94.66197205 C24.20438512 99.80026685 23.83660643 104.86824567 23.22389221 109.97398376 C22.89967947 112.90780747 22.78332196 115.83605071 22.68359375 118.78515625 C22.62075195 120.56889648 22.62075195 120.56889648 22.55664062 122.38867188 C22.51732422 123.60103516 22.47800781 124.81339844 22.4375 126.0625 C22.37272461 127.93325195 22.37272461 127.93325195 22.30664062 129.84179688 C22.20137704 132.89444091 22.09924059 135.94715523 22 139 C19.14992869 140.42503565 16.71379745 140.12980035 13.53125 140.1328125 C11.59185547 140.13474609 11.59185547 140.13474609 9.61328125 140.13671875 C8.93861816 140.13462402 8.26395508 140.1325293 7.56884766 140.13037109 C5.50806311 140.12502093 3.44749651 140.13032035 1.38671875 140.13671875 C0.09378906 140.13542969 -1.19914062 140.13414062 -2.53125 140.1328125 C-3.72298828 140.13168457 -4.91472656 140.13055664 -6.14257812 140.12939453 C-9 140 -9 140 -11 139 C-10.64948959 131.27859974 -10.29321335 123.55748701 -9.93017006 115.83666706 C-9.76164467 112.2490569 -9.59488711 108.6613853 -9.43261719 105.07348633 C-8.72751782 89.51347705 -7.8893629 74.01040993 -6.25604248 58.51480103 C-5.78920414 53.92960279 -5.39939476 49.33756819 -5 44.74609375 C-4.83358933 42.86390964 -4.66692326 40.98174809 -4.5 39.09960938 C-4.2476967 36.25010969 -3.99679762 33.40051933 -3.75 30.55053711 C-1.969902 10.03942739 -1.969902 10.03942739 0 0 Z " fill="#F8F6FC" transform="translate(1282,220)"/>
<path d="M0 0 C1.34888732 0.00015905 2.69778075 0.00584927 4.04663086 0.01586914 C5.10991859 0.01799156 5.10991859 0.01799156 6.19468689 0.02015686 C8.46699173 0.02577096 10.73919936 0.03832576 13.01147461 0.05102539 C14.54858257 0.05603858 16.08569206 0.0606018 17.62280273 0.06469727 C21.39823103 0.07574497 25.17358632 0.09301898 28.94897461 0.11352539 C34.61303711 11.44165039 34.61303711 11.44165039 35.73095703 13.68261719 C36.58771207 15.39252096 37.4503961 17.09946049 38.31738281 18.80419922 C42.40021245 26.87027728 46.18100948 35.05732722 49.88647461 43.30102539 C50.1916803 43.97862915 50.49688599 44.65623291 50.81134033 45.35437012 C54.39737285 53.32192084 57.96650919 61.29632003 61.32397461 69.36352539 C61.60362061 70.02892334 61.8832666 70.69432129 62.17138672 71.37988281 C63.29815119 74.14408749 63.94897461 76.09253997 63.94897461 79.11352539 C64.60897461 79.11352539 65.26897461 79.11352539 65.94897461 79.11352539 C66.10317871 78.53594482 66.25738281 77.95836426 66.41625977 77.36328125 C68.44348916 70.16995535 71.25850022 63.48220704 74.32397461 56.67602539 C74.79319336 55.62092773 75.26241211 54.56583008 75.74584961 53.47875977 C77.13843319 50.35314054 78.54193109 47.23265846 79.94897461 44.11352539 C80.38846436 43.13448242 80.8279541 42.15543945 81.28076172 41.14672852 C83.66237805 35.86533889 86.12893927 30.64895555 88.76147461 25.48852539 C92.99659761 17.10856301 96.97836138 8.6219823 100.94897461 0.11352539 C111.17897461 0.11352539 121.40897461 0.11352539 131.94897461 0.11352539 C134.95714912 14.11442903 136.06676996 28.03229284 137.07397461 42.30102539 C137.32604352 45.78010648 137.58069317 49.25897138 137.83859253 52.73762512 C137.99716552 54.88536484 138.15206678 57.03337977 138.30276489 59.1816864 C138.37308929 60.15072403 138.4434137 61.11976166 138.51586914 62.11816406 C138.60555466 63.38813484 138.60555466 63.38813484 138.697052 64.6837616 C138.90960384 67.12767915 138.90960384 67.12767915 139.45173645 69.55296326 C140.00727755 72.41376042 140.19407237 75.16717402 140.33789062 78.07788086 C140.39787735 79.25615448 140.45786407 80.4344281 140.51966858 81.64840698 C140.58012863 82.91306793 140.64058868 84.17772888 140.70288086 85.48071289 C140.76805405 86.78879913 140.83322723 88.09688538 140.90037537 89.4446106 C141.03794463 92.20995482 141.17302061 94.97540545 141.30615234 97.7409668 C141.47612388 101.27036375 141.65087428 104.79950289 141.8273325 108.32858086 C141.99616919 111.71252807 142.1619919 115.09661984 142.32788086 118.48071289 C142.39036514 119.74132538 142.45284943 121.00193787 142.51722717 122.30075073 C142.78640279 127.91106026 143.03131847 133.49653496 142.94897461 139.11352539 C140.0787902 140.5486176 137.61353738 140.22511045 134.40991211 140.21118164 C133.10795898 140.20795898 131.80600586 140.20473633 130.46459961 140.20141602 C129.08439062 140.19306005 127.70418229 140.1845951 126.32397461 140.17602539 C124.93595535 140.1710104 123.54793439 140.16644749 122.15991211 140.16235352 C118.75622329 140.15053515 115.35262022 140.13405973 111.94897461 140.11352539 C109.90565362 135.86199108 109.56136418 131.88189881 109.39038086 127.24243164 C109.35449356 126.46235245 109.31860626 125.68227325 109.28163147 124.8785553 C109.20442892 123.1828931 109.13106582 121.48705271 109.06109619 119.79107666 C108.94686608 117.06317211 108.81867111 114.33623486 108.68676758 111.60913086 C108.45315213 106.75192633 108.23321247 101.89423098 108.01904297 97.03613281 C107.93058115 95.04419427 107.84040862 93.05233098 107.74853516 91.06054688 C107.18008148 78.73529991 106.80933696 66.4523221 106.94897461 54.11352539 C106.28897461 54.11352539 105.62897461 54.11352539 104.94897461 54.11352539 C104.77881836 54.64719727 104.60866211 55.18086914 104.43334961 55.73071289 C101.77692951 63.89779171 98.56367957 71.76350942 95.06640625 79.60180664 C88.80323725 93.67991079 82.75838124 107.84259171 76.94897461 122.11352539 C69.02897461 122.11352539 61.10897461 122.11352539 52.94897461 122.11352539 C48.70368694 113.82331762 44.88247214 105.46825388 41.32397461 96.86352539 C38.65573603 90.43010572 35.99857236 84.05217526 32.8112793 77.85717773 C31.47711615 75.15938805 30.43451697 72.37001722 29.38647461 69.55102539 C27.6783065 65.01699894 25.9069709 60.54478015 23.94897461 56.11352539 C22.4391322 61.69455003 21.75235825 66.77482476 21.97631836 72.55883789 C21.94897461 75.11352539 21.94897461 75.11352539 21.47412109 77.96923828 C20.64579575 83.60300193 20.65951052 89.29325703 20.51928711 94.97680664 C20.44570776 97.49700768 20.37146966 100.01718956 20.29663086 102.53735352 C20.18265654 106.49857783 20.07313818 110.45974 19.97485352 114.42138672 C19.87780618 118.25286272 19.76256077 122.08343519 19.64428711 125.91430664 C19.61916046 127.10695633 19.59403381 128.29960602 19.56814575 129.52839661 C19.53155853 130.62681381 19.49497131 131.72523102 19.45727539 132.85693359 C19.43142365 133.82621292 19.4055719 134.79549225 19.37893677 135.79414368 C19.23704926 136.55953964 19.09516174 137.32493561 18.94897461 138.11352539 C15.38478932 140.48964892 13.82674961 140.35916251 9.60131836 140.34399414 C8.35672852 140.34206055 7.11213867 140.34012695 5.82983398 140.33813477 C4.52852539 140.32588867 3.2272168 140.31364258 1.88647461 140.30102539 C0.58129883 140.30038086 -0.72387695 140.29973633 -2.06860352 140.29907227 C-11.7704622 140.25380698 -11.7704622 140.25380698 -14.05102539 139.11352539 C-14.08025185 135.73854381 -14.09790007 132.36359518 -14.11352539 128.98852539 C-14.1219043 128.03719727 -14.1302832 127.08586914 -14.13891602 126.10571289 C-14.14375 124.71352539 -14.14375 124.71352539 -14.14868164 123.29321289 C-14.15391846 122.44484863 -14.15915527 121.59648437 -14.16455078 120.72241211 C-14.05102539 118.11352539 -14.05102539 118.11352539 -13.5690155 115.33380127 C-13.06408658 112.19472505 -12.81305449 109.15408577 -12.6496582 105.98022461 C-12.55357521 104.17968628 -12.55357521 104.17968628 -12.45555115 102.34277344 C-12.3890889 101.04766846 -12.32262665 99.75256348 -12.25415039 98.41821289 C-12.10293746 95.60804313 -11.94855331 92.79804877 -11.79443359 89.98803711 C-11.7546341 89.25751507 -11.71483461 88.52699303 -11.67382908 87.77433395 C-10.4196456 64.7885364 -9.0536401 41.86042357 -6.36352539 18.98852539 C-6.20104309 17.59364899 -6.20104309 17.59364899 -6.03527832 16.17059326 C-5.73265993 13.60615835 -5.42079564 11.04315867 -5.10180664 8.48071289 C-5.01028824 7.73611816 -4.91876984 6.99152344 -4.82447815 6.22436523 C-4.02991624 0.14994887 -4.02991624 0.14994887 0 0 Z " fill="#F8F6FC" transform="translate(546.051025390625,219.886474609375)"/>
<path d="M0 0 C12.70054624 -0.41339934 24.89414377 2.13977696 34.78515625 10.4921875 C35.50703125 11.3584375 36.22890625 12.2246875 36.97265625 13.1171875 C37.5346875 13.70242188 38.09671875 14.28765625 38.67578125 14.890625 C43.10363088 19.59754079 45.73374921 24.09056101 47.97265625 30.1171875 C48.24271484 30.83076416 48.51277344 31.54434082 48.79101562 32.27954102 C51.23128125 39.45204718 51.35739863 46.15516793 51.22265625 53.6796875 C51.2175 54.86626953 51.21234375 56.05285156 51.20703125 57.27539062 C51.12737899 65.96246476 51.12737899 65.96246476 49.97265625 67.1171875 C47.91708964 67.21132437 45.85825444 67.23461748 43.80053711 67.23071289 C43.15665543 67.23085892 42.51277374 67.23100494 41.84938049 67.2311554 C39.71205322 67.23045635 37.57481212 67.22266441 35.4375 67.21484375 C33.9591934 67.21297954 32.48088618 67.21155565 31.00257874 67.21055603 C27.10466823 67.20673109 23.20679476 67.19690102 19.30889893 67.18585205 C15.33419292 67.17563742 11.35948096 67.1710583 7.38476562 67.16601562 C-0.41928775 67.15527872 -8.22331057 67.13820259 -16.02734375 67.1171875 C-15.5684375 68.21675781 -15.10953125 69.31632812 -14.63671875 70.44921875 C-14.37858398 71.06772705 -14.12044922 71.68623535 -13.85449219 72.32348633 C-11.24720654 77.97747915 -7.39113158 80.43529358 -2.02734375 83.1171875 C8.29469244 86.3024219 22.42231804 85.0566642 32.5 81.7734375 C35.39571736 81.00490588 37.98980962 81.01298325 40.97265625 81.1171875 C41.65081579 83.78138568 42.31531402 86.44784508 42.97265625 89.1171875 C43.1634375 89.86097656 43.35421875 90.60476563 43.55078125 91.37109375 C44.78013424 96.42022208 45.16160147 100.92119392 44.97265625 106.1171875 C43.56367812 106.7593324 42.14470932 107.379542 40.72265625 107.9921875 C39.93375 108.34023438 39.14484375 108.68828125 38.33203125 109.046875 C28.43558264 112.19992956 18.34518985 112.48173638 8.03515625 112.4921875 C6.76736328 112.51667969 5.49957031 112.54117188 4.19335938 112.56640625 C-10.8547865 112.6126845 -23.77782639 108.2083776 -35.02734375 98.1171875 C-45.95862701 86.55315531 -49.83415357 71.90178849 -50.08984375 56.3046875 C-49.07056062 37.278069 -43.03601882 23.38458633 -29.12890625 10.3359375 C-20.8553542 3.49367504 -10.51858554 0.60801073 0 0 Z M-12.02734375 33.1171875 C-14.7924511 37.22939843 -16.02734375 40.11373738 -16.02734375 45.1171875 C-4.14734375 45.1171875 7.73265625 45.1171875 19.97265625 45.1171875 C19.0059068 38.34994138 18.26290269 33.79374129 13.09765625 29.2421875 C4.88789951 23.89102971 -5.83265631 25.90273579 -12.02734375 33.1171875 Z " fill="#F8F7FC" transform="translate(757.02734375,249.8828125)"/>
<path d="M0 0 C13.65634487 -0.38956293 26.34071675 2.81624605 36.71484375 12.1171875 C36.71484375 12.7771875 36.71484375 13.4371875 36.71484375 14.1171875 C37.70484375 14.4471875 38.69484375 14.7771875 39.71484375 15.1171875 C50.59555255 27.8548706 52.72973683 44.90250035 51.71484375 61.1171875 C51.38484375 63.0971875 51.05484375 65.0771875 50.71484375 67.1171875 C28.60484375 67.1171875 6.49484375 67.1171875 -16.28515625 67.1171875 C-11.48194692 76.72360617 -9.59018939 79.45798575 -0.6640625 83.22265625 C3.87906794 84.42540408 8.15922915 84.45639333 12.83984375 84.4296875 C13.77256104 84.42839844 14.70527832 84.42710937 15.66625977 84.42578125 C21.81232525 84.34035249 27.36358007 83.68863992 33.2421875 81.7734375 C36.13790486 81.00490588 38.73199712 81.01298325 41.71484375 81.1171875 C42.22366352 83.7824339 42.72204516 86.44897169 43.21484375 89.1171875 C43.35792969 89.86097656 43.50101563 90.60476563 43.6484375 91.37109375 C44.56116943 96.36938765 44.85341094 101.03639066 44.71484375 106.1171875 C43.30586562 106.7593324 41.88689682 107.379542 40.46484375 107.9921875 C39.6759375 108.34023438 38.88703125 108.68828125 38.07421875 109.046875 C28.20865357 112.19008995 18.24022428 112.43094374 7.96484375 112.3671875 C6.70285156 112.37492187 5.44085937 112.38265625 4.140625 112.390625 C-2.3659146 112.37697014 -8.07798708 112.09865226 -14.28515625 110.1171875 C-15.14882812 109.84519531 -16.0125 109.57320313 -16.90234375 109.29296875 C-26.92273348 105.46164327 -34.40122714 100.11066142 -40.28515625 91.1171875 C-40.98640625 90.2096875 -41.68765625 89.3021875 -42.41015625 88.3671875 C-50.39555107 74.52583647 -51.36243106 56.1111625 -47.96875 40.6640625 C-44.89830908 29.22447691 -40.00480851 21.19881642 -31.28515625 13.1171875 C-30.74761719 12.56289063 -30.21007813 12.00859375 -29.65625 11.4375 C-21.48187562 3.48497711 -11.13539535 0.57104592 0 0 Z M-12.66015625 33.8671875 C-14.81096581 37.71811271 -14.81096581 37.71811271 -15.28515625 45.1171875 C-3.40515625 45.1171875 8.47484375 45.1171875 20.71484375 45.1171875 C19.34190897 37.12669084 19.34190897 37.12669084 15.27734375 31.6171875 C14.68050781 30.9675 14.08367187 30.3178125 13.46875 29.6484375 C9.55401684 26.23067492 4.651629 26.78635288 -0.26953125 26.83984375 C-5.9311356 27.36053534 -8.9252969 29.54261351 -12.66015625 33.8671875 Z " fill="#F8F7FD" transform="translate(1496.28515625,249.8828125)"/>
<path d="M0 0 C15.409197 -0.37475873 28.83396199 3.72631435 40.48046875 14.12109375 C54.44185538 29.05653061 56.13203639 45.8393895 55.61230469 65.44482422 C54.91271729 79.64644832 47.91285496 92.65247742 37.48046875 102.12109375 C34.30267952 104.5422665 31.07975914 106.39688278 27.48046875 108.12109375 C26.68125 108.53359375 25.88203125 108.94609375 25.05859375 109.37109375 C13.06963598 114.4788154 -4.62288962 114.46699325 -16.89453125 110.12109375 C-31.71486573 103.05999226 -40.94742773 92.70025147 -46.76953125 77.55859375 C-50.91080686 65.43534339 -51.09483752 50.44057763 -47.51953125 38.12109375 C-47.26300781 37.23035156 -47.00648437 36.33960938 -46.7421875 35.421875 C-42.31071908 21.78512453 -33.1074557 11.78393288 -20.51953125 5.12109375 C-13.61319733 1.84444651 -7.5699788 0.36382844 0 0 Z M-11.82421875 34.73046875 C-17.26435931 43.38704278 -18.81018205 55.93258861 -16.7578125 65.7734375 C-14.30736332 73.87176213 -12.38884863 78.93405818 -5.51953125 84.12109375 C0.11730238 86.00003829 6.23884049 85.86830317 11.85546875 83.99609375 C19.50505318 78.53210487 21.47316267 72.08744512 22.98828125 63.11328125 C24.07003639 53.74574206 23.84618377 43.34110082 18.6015625 35.20703125 C14.99607176 31.0238652 12.52485235 28.43680761 6.84375 27.84765625 C-0.98825853 27.58692357 -6.69639018 28.40512333 -11.82421875 34.73046875 Z " fill="#F8F7FC" transform="translate(1075.51953125,249.87890625)"/>
<path d="M0 0 C15.263306 -0.41317867 28.33364641 3.80873936 39.703125 14.12109375 C51.80866374 25.60519826 55.64674531 40.79242728 56.140625 57.05859375 C56.02808753 73.80007744 50.25668314 88.51537383 38.546875 100.48046875 C34.87847436 103.88684078 31.27863572 106.15397077 26.703125 108.12109375 C25.7440625 108.57548828 25.7440625 108.57548828 24.765625 109.0390625 C17.5565109 112.34841876 10.74674759 112.33326063 2.953125 112.37109375 C1.38304687 112.40203125 1.38304687 112.40203125 -0.21875 112.43359375 C-6.8283906 112.46664195 -12.19888526 111.67799053 -18.296875 109.12109375 C-18.98861816 108.84104492 -19.68036133 108.56099609 -20.39306641 108.27246094 C-27.47821167 105.28508863 -35.31053275 99.34082226 -38.296875 92.12109375 C-38.956875 92.12109375 -39.616875 92.12109375 -40.296875 92.12109375 C-50.00935069 72.88240902 -53.45723636 55.04639684 -46.76953125 34.19140625 C-42.5882482 22.17331422 -34.08139906 11.86379355 -22.58203125 6.14453125 C-21.82792969 5.80679688 -21.07382812 5.4690625 -20.296875 5.12109375 C-19.47058594 4.74210938 -18.64429688 4.363125 -17.79296875 3.97265625 C-11.76064224 1.37553247 -6.50037293 0.34270674 0 0 Z M-13.671875 36.93359375 C-18.64587151 46.69027922 -18.89804038 59.5306033 -16.1171875 70.02734375 C-14.01123664 75.4025326 -10.77656319 79.67663623 -6.671875 83.68359375 C-0.91132887 86.13715969 5.1041799 86.29710372 11.08203125 84.34375 C16.94822539 81.21585521 19.41085088 76.17151685 21.703125 70.12109375 C22.97218803 65.72349713 22.92494195 61.48163402 22.953125 56.93359375 C22.97375 56.12083984 22.994375 55.30808594 23.015625 54.47070312 C23.0682874 46.1961241 21.10075956 38.56826837 15.703125 32.12109375 C10.57395991 28.06050472 6.15346613 27.37737091 -0.35546875 27.60546875 C-6.44082106 28.67222374 -9.81979167 32.37191612 -13.671875 36.93359375 Z " fill="#F8F7FD" transform="translate(340.296875,249.87890625)"/>
<path d="M0 0 C1.56047445 0.00015913 3.12095416 0.00585397 4.68139648 0.01586914 C5.91115456 0.01799156 5.91115456 0.01799156 7.16575623 0.02015686 C9.79470406 0.0257725 12.42356797 0.0383276 15.05249023 0.05102539 C16.8304838 0.05603838 18.60847869 0.06060163 20.38647461 0.06469727 C24.75434569 0.07574701 29.12215371 0.09302208 33.48999023 0.11352539 C33.76037109 0.68981689 34.03075195 1.2661084 34.30932617 1.85986328 C39.63920696 13.18865223 45.08343056 24.44487092 50.86499023 35.55102539 C51.35193359 36.49018799 51.83887695 37.42935059 52.34057617 38.39697266 C55.17225672 43.79553177 58.19176756 48.98628832 61.48999023 54.11352539 C62.76405311 52.07381428 64.03428225 50.03187275 65.30249023 47.98852539 C65.65891602 47.41875977 66.0153418 46.84899414 66.38256836 46.26196289 C68.63161209 42.63047944 70.6108666 38.94673769 72.48999023 35.11352539 C73.38854061 33.44592747 74.28736044 31.77846354 75.19262695 30.11450195 C79.01429659 23.07747616 82.53607766 15.9394182 85.87548828 8.66113281 C87.26288505 5.64934496 88.6462412 2.87914894 90.48999023 0.11352539 C93.25627938 -0.15323621 95.79618655 -0.23451649 98.56030273 -0.17944336 C99.75464432 -0.1730761 99.75464432 -0.1730761 100.97311401 -0.1665802 C103.52074752 -0.14976295 106.06759512 -0.11210639 108.61499023 -0.07397461 C110.34023924 -0.05893165 112.06550062 -0.04524257 113.79077148 -0.03295898 C118.02414805 0.00015038 122.25693582 0.05195254 126.48999023 0.11352539 C125.60075802 4.00417912 124.02969049 7.37738187 122.23999023 10.92602539 C121.89137939 11.61833252 121.54276855 12.31063965 121.18359375 13.02392578 C111.08069758 32.80885404 99.40723943 51.76657782 87.8918457 70.74780273 C87.38669434 71.5839209 86.88154297 72.42003906 86.36108398 73.28149414 C85.92594482 73.99974365 85.49080566 74.71799316 85.04248047 75.45800781 C84.53015869 76.33432861 84.01783691 77.21064941 83.48999023 78.11352539 C83.07192612 78.73187759 82.653862 79.3502298 82.22312927 79.98731995 C78.15382436 86.41764666 77.75592946 91.86897045 77.78295898 99.36743164 C77.76027702 101.07962135 77.76027702 101.07962135 77.73713684 102.82640076 C77.69442798 106.44314591 77.68543751 110.05905371 77.67749023 113.67602539 C77.65433306 116.1402401 77.62896521 118.60443509 77.60131836 121.06860352 C77.53863189 127.08358557 77.50356464 133.09824263 77.48999023 139.11352539 C74.57946824 140.56878639 72.01442613 140.24338426 68.76733398 140.24633789 C68.10665421 140.24729462 67.44597443 140.24825134 66.76527405 140.24923706 C65.36906845 140.24991755 63.97285968 140.24807239 62.57666016 140.24389648 C60.4324641 140.23853782 58.28847671 140.24385018 56.14428711 140.25024414 C54.78946894 140.2495835 53.43465089 140.24830264 52.07983398 140.24633789 C50.22152954 140.244646 50.22152954 140.244646 48.32568359 140.24291992 C45.48999023 140.11352539 45.48999023 140.11352539 44.48999023 139.11352539 C44.40893613 137.55519188 44.39643845 135.9932275 44.41162109 134.43286133 C44.41749741 133.43381775 44.42337372 132.43477417 44.4294281 131.40545654 C44.43781204 130.31396301 44.44619598 129.22246948 44.45483398 128.09790039 C44.45111641 125.79060428 44.44518272 123.48331088 44.43725586 121.17602539 C44.42675766 117.53534673 44.42713865 113.89661427 44.46582031 110.25610352 C44.78484376 90.71966113 44.78484376 90.71966113 35.48999023 74.11352539 C34.55267338 72.66459298 33.63921564 71.19971114 32.75952148 69.71508789 C32.35612549 69.06378906 31.95272949 68.41249023 31.53710938 67.74145508 C21.5649985 51.56364261 12.4023707 34.9168516 3.359375 18.20629883 C1.52606951 14.82124595 -0.30016019 11.45899828 -2.29907227 8.16821289 C-3.68811298 5.81132446 -4.20885673 3.82390271 -4.51000977 1.11352539 C-3.51000977 0.11352539 -3.51000977 0.11352539 0 0 Z " fill="#F7F6FC" transform="translate(173.510009765625,219.886474609375)"/>
<path d="M0 0 C1.44352405 -0.01650112 2.88696837 -0.04371425 4.33007812 -0.08203125 C17.44759625 -0.42632306 29.75527377 1.40203431 40.09643555 10.36181641 C51.5332618 22.3645887 52.60543911 38.67295316 52.3815918 54.34619141 C52.37410611 55.91658294 52.36842424 57.48698398 52.36444092 59.05738831 C52.34936712 63.13619025 52.31025008 67.21439743 52.265625 71.29296875 C52.22427139 75.47664348 52.20634547 79.66041689 52.1862793 83.84423828 C52.14373209 92.01312717 52.07571117 100.18153787 51.9909668 108.35009766 C49.1932403 109.74896091 46.86707787 109.47984362 43.7409668 109.48291016 C42.4931543 109.48419922 41.2453418 109.48548828 39.9597168 109.48681641 C38.6500293 109.48294922 37.3403418 109.47908203 35.9909668 109.47509766 C34.6812793 109.47896484 33.3715918 109.48283203 32.0222168 109.48681641 C30.7744043 109.48552734 29.5265918 109.48423828 28.2409668 109.48291016 C27.09112305 109.48178223 25.9412793 109.4806543 24.7565918 109.47949219 C21.9909668 109.35009766 21.9909668 109.35009766 19.9909668 108.35009766 C19.98287994 107.61253235 19.97479309 106.87496704 19.96646118 106.11505127 C19.88804083 99.11376294 19.80061361 92.11265576 19.70343971 85.1116066 C19.65380705 81.51357006 19.60747865 77.9155583 19.5690918 74.31738281 C19.53181597 70.83535669 19.48535132 67.35355643 19.43290329 63.87172699 C19.40575456 61.91791779 19.38776434 59.96398809 19.37002563 58.0100708 C19.24429692 50.28804649 18.56322017 42.91634236 16.9909668 35.35009766 C16.84325836 34.60439514 16.69554993 33.85869263 16.54336548 33.09039307 C16.13614345 31.16035283 16.13614345 31.16035283 14.1159668 30.16259766 C10.91935579 28.94036404 8.38659794 28.22682223 4.97924805 28.25244141 C4.22192383 28.25566406 3.46459961 28.25888672 2.68432617 28.26220703 C1.89864258 28.27058594 1.11295898 28.27896484 0.3034668 28.28759766 C-0.49381836 28.29210937 -1.29110352 28.29662109 -2.11254883 28.30126953 C-4.07807577 28.31303915 -6.04356405 28.33097417 -8.0090332 28.35009766 C-8.00237137 29.32062576 -7.99570953 30.29115387 -7.98884583 31.29109192 C-7.92808131 40.42884707 -7.88308303 49.56656134 -7.85359669 58.70447254 C-7.83792793 63.40259522 -7.81666765 68.10055504 -7.78271484 72.79858398 C-7.75016443 77.33082878 -7.73218931 81.86291675 -7.72440147 86.39526939 C-7.71885018 88.12607989 -7.70801007 89.85688162 -7.69184303 91.5876255 C-7.67012583 94.00839542 -7.66706383 96.42851389 -7.66845703 98.84936523 C-7.6576712 99.56793701 -7.64688538 100.28650879 -7.63577271 101.02685547 C-7.65381689 103.91650341 -7.68344798 105.87761649 -9.35037231 108.2966156 C-11.96872565 109.95963682 -14.2906652 109.70325671 -17.35668945 109.67822266 C-18.6012793 109.67306641 -19.84586914 109.66791016 -21.12817383 109.66259766 C-22.42948242 109.64197266 -23.73079102 109.62134766 -25.0715332 109.60009766 C-26.37670898 109.59494141 -27.68188477 109.58978516 -29.02661133 109.58447266 C-38.70076686 109.50423083 -38.70076686 109.50423083 -41.0090332 108.35009766 C-41.0090332 74.69009766 -41.0090332 41.03009766 -41.0090332 6.35009766 C-37.04891968 5.03005982 -33.22353583 3.81725964 -29.1965332 2.78759766 C-28.24133789 2.53880859 -27.28614258 2.29001953 -26.30200195 2.03369141 C-17.60435769 0.22813062 -8.84848632 0.07362959 0 0 Z " fill="#F6F5FC" transform="translate(870.009033203125,250.64990234375)"/>
<path d="M0 0 C1.29349365 0.00523682 2.5869873 0.01047363 3.91967773 0.01586914 C4.9496714 0.01799156 4.9496714 0.01799156 6.00047302 0.02015686 C8.20144949 0.0257706 10.40232557 0.03832532 12.60327148 0.05102539 C14.09220231 0.05603863 15.58113473 0.06060184 17.07006836 0.06469727 C20.72700223 0.07574446 24.38387707 0.09301826 28.04077148 0.11352539 C29.41393627 2.85985495 29.18065991 5.07468877 29.19848633 8.14868164 C29.20874847 9.41760254 29.21901062 10.68652344 29.22958374 11.99389648 C29.23302166 12.67474304 29.23645958 13.3555896 29.24000168 14.05706787 C29.2518082 16.193982 29.27127051 18.33069561 29.29312134 20.4675293 C29.35464133 26.54428294 29.40855346 32.62102088 29.44213867 38.69799805 C29.46323737 42.41578676 29.49867067 46.13321728 29.54289627 49.85079956 C29.55694935 51.2603632 29.56575424 52.6699903 29.56895065 54.07962036 C29.59832664 65.90506453 29.59832664 65.90506453 33.04077148 77.11352539 C36.30173091 80.3358364 38.84801521 81.29956844 43.31030273 81.53930664 C44.82500009 81.52222853 46.33959131 81.48409496 47.85327148 81.42602539 C48.62864258 81.41635742 49.40401367 81.40668945 50.20288086 81.39672852 C53.92725122 81.64904065 53.92725122 81.64904065 57.04077148 80.11352539 C57.13045063 77.68998261 57.1557551 75.29518439 57.13842773 72.87158203 C57.13696747 72.11387009 57.1355072 71.35615814 57.13400269 70.57548523 C57.13018764 68.92486487 57.12406167 67.27424865 57.11593628 65.62364388 C57.10322638 63.01442269 57.09667083 60.40525205 57.09179688 57.79600525 C57.07839027 51.31411137 57.05419757 44.83226534 57.03039551 38.35040283 C57.01070583 32.87845065 56.99504682 27.40651621 56.98483276 21.93453789 C56.97832808 19.35859387 56.96581868 16.78272227 56.953125 14.20680237 C56.94949347 12.63282333 56.94614162 11.0588436 56.94311523 9.48486328 C56.93794891 8.76426727 56.93278259 8.04367126 56.92745972 7.30123901 C56.926928 2.34121236 56.926928 2.34121236 58.04077148 0.11352539 C62.29491771 0.08886917 66.54902646 0.07068641 70.80322266 0.05859375 C72.25147221 0.05355438 73.69971665 0.04672286 75.14794922 0.03808594 C77.22551736 0.02600292 79.30301846 0.02029328 81.38061523 0.01586914 C82.63221436 0.01063232 83.88381348 0.00539551 85.17333984 0 C88.04077148 0.11352539 88.04077148 0.11352539 89.04077148 1.11352539 C89.1361339 4.27965202 89.16627785 7.42393167 89.15429688 10.59033203 C89.1544429 11.58534225 89.15458893 12.58035248 89.15473938 13.60551453 C89.1540398 16.91159201 89.14624528 20.21761394 89.13842773 23.52368164 C89.13656372 25.80911732 89.13513974 28.0945534 89.13414001 30.37998962 C89.13031356 36.40850926 89.12048218 42.43700498 89.10943604 48.46551514 C89.09922466 54.6118538 89.09464298 60.75819632 89.08959961 66.90454102 C89.07886003 78.97421301 89.06178208 91.04386721 89.04077148 103.11352539 C84.79285031 104.55748426 80.61752179 105.73511988 76.22827148 106.67602539 C75.08745117 106.92481445 73.94663086 107.17360352 72.77124023 107.42993164 C63.78596508 109.07644803 54.9178568 109.35538232 45.79077148 109.42602539 C43.94032227 109.46953125 43.94032227 109.46953125 42.05249023 109.51391602 C28.84899576 109.60416072 16.72536223 106.65811347 7.11108398 97.21899414 C-4.45389347 83.84233566 -4.12030547 66.74395814 -4.09204102 50.07446289 C-4.09271617 48.65768416 -4.09368796 47.24090554 -4.09494019 45.8241272 C-4.09640238 42.88103106 -4.09430742 39.93796558 -4.08959961 36.99487305 C-4.08385033 33.21636256 -4.08722308 29.43792232 -4.09317207 25.65941429 C-4.09677314 22.74617984 -4.09564212 19.83296227 -4.09304428 16.91972733 C-4.09237646 15.52501034 -4.09319841 14.13029183 -4.09552383 12.73557663 C-4.09804847 10.79954811 -4.09352184 8.8635142 -4.08862305 6.92749023 C-4.08782745 5.82593597 -4.08703186 4.72438171 -4.08621216 3.58944702 C-3.90084122 -0.02490756 -3.67155799 0.14085261 0 0 Z " fill="#F6F4FC" transform="translate(418.959228515625,252.886474609375)"/>
<path d="M0 0 C0 9.9 0 19.8 0 30 C11.55 30 23.1 30 35 30 C35.020625 34.269375 35.04125 38.53875 35.0625 42.9375 C35.071604 44.28577881 35.08070801 45.63405762 35.09008789 47.02319336 C35.09258545 48.07643799 35.09508301 49.12968262 35.09765625 50.21484375 C35.10289307 51.29886475 35.10812988 52.38288574 35.11352539 53.49975586 C35 56 35 56 34 57 C31.47905924 57.08847743 28.98569107 57.11527301 26.46484375 57.09765625 C25.33496788 57.09553383 25.33496788 57.09553383 24.18226624 57.09336853 C21.7673044 57.08775376 19.35243399 57.07519883 16.9375 57.0625 C15.30403779 57.0574869 13.67057414 57.05292366 12.03710938 57.04882812 C8.02470415 57.03777954 4.01236759 57.02050506 0 57 C0.06920478 63.10187338 0.15732978 69.20308285 0.26245117 75.30444336 C0.29555845 77.37695914 0.32363388 79.44956201 0.34643555 81.5222168 C0.38024376 84.51388411 0.43257168 87.50476349 0.48828125 90.49609375 C0.49467117 91.41208847 0.5010611 92.32808319 0.50764465 93.27183533 C0.64381563 99.32726948 1.75515205 104.37443647 4 110 C8.16109016 110.99642964 12.10186473 111.16583096 16.375 111.1875 C18.27378906 111.20876953 18.27378906 111.20876953 20.2109375 111.23046875 C24.08578072 110.99478241 27.29734924 110.11786473 31 109 C32.32 109 33.64 109 35 109 C38.4153444 116.72040036 39.39058854 125.60234632 39 134 C37.29422658 134.65256456 35.58523911 135.29673041 33.875 135.9375 C32.44800781 136.47697266 32.44800781 136.47697266 30.9921875 137.02734375 C24.22510509 139.22708725 17.61172444 139.1830243 10.5625 139.1875 C9.55123047 139.19974609 8.53996094 139.21199219 7.49804688 139.22460938 C1.90560466 139.23555349 -2.72983831 138.89133516 -8 137 C-9.19109375 136.57460938 -9.19109375 136.57460938 -10.40625 136.140625 C-20.5502196 131.82565286 -25.68989818 125.86149183 -29.9375 115.7734375 C-33.08080604 107.22001818 -33.15197811 98.25219408 -33.11352539 89.23583984 C-33.11367142 88.31754395 -33.11381744 87.39924805 -33.1139679 86.453125 C-33.11327821 83.45570407 -33.10553057 80.4583474 -33.09765625 77.4609375 C-33.09578871 75.36772699 -33.09436639 73.27451604 -33.09336853 71.18130493 C-33.08956981 65.70036591 -33.07976238 60.21945384 -33.06866455 54.73852539 C-33.05839329 49.13428105 -33.05385872 43.53003231 -33.04882812 37.92578125 C-33.0381375 26.95050906 -33.0210932 15.97525678 -33 5 C-31.57569418 4.51256335 -30.15026021 4.02842243 -28.72436523 3.5456543 C-27.93070053 3.27569138 -27.13703583 3.00572845 -26.31932068 2.72758484 C-23.26003289 1.76786787 -20.2367567 1.24585827 -17.0625 0.8125 C-15.96035156 0.65394531 -14.85820313 0.49539062 -13.72265625 0.33203125 C-9.16519064 -0.07445834 -4.57555752 0 0 0 Z " fill="#F6F4FC" transform="translate(978,223)"/>
<path d="M0 0 C1.421875 1.72265625 1.421875 1.72265625 2 4 C1.609375 6.91796875 1.609375 6.91796875 0.75 10.1875 C0.45867187 11.33089844 0.16734375 12.47429687 -0.1328125 13.65234375 C-0.41898438 14.75707031 -0.70515625 15.86179687 -1 17 C-1.38311 18.74824247 -1.75941595 20.49800876 -2.125 22.25 C-3 26 -3 26 -4 27 C-5.8156735 26.93588312 -7.6290486 26.79902523 -9.4375 26.625 C-10.92056641 26.48964844 -10.92056641 26.48964844 -12.43359375 26.3515625 C-15 26 -15 26 -17 25 C-19.65835737 24.87561549 -22.27905229 24.81483812 -24.9375 24.8125 C-25.66646484 24.80025391 -26.39542969 24.78800781 -27.14648438 24.77539062 C-30.9713391 24.76487315 -32.74356564 24.82904376 -36 27 C-36.27091677 29.47037982 -36.34773306 31.68702134 -36.29296875 34.15600586 C-36.28858795 34.8927504 -36.28420715 35.62949493 -36.2796936 36.38856506 C-36.26826422 37.99065596 -36.24990224 39.59270873 -36.22549438 41.19465446 C-36.18729129 43.72868793 -36.16768085 46.26225194 -36.15307617 48.79652405 C-36.11290129 55.09121856 -36.04031819 61.38546764 -35.96887207 67.67987061 C-35.90975067 72.99569217 -35.86279692 78.3113483 -35.83218384 83.6274128 C-35.81270086 86.12657863 -35.77517648 88.625067 -35.73706055 91.12400818 C-35.72616379 92.65419926 -35.71610849 94.18439665 -35.70703125 95.71459961 C-35.69153229 96.41132782 -35.67603333 97.10805603 -35.6600647 97.82589722 C-35.65912635 100.66866274 -35.69289699 102.55419566 -37.33163452 104.93305969 C-40.01261712 106.64758114 -42.46099595 106.35273028 -45.6015625 106.328125 C-47.54289062 106.32039063 -47.54289062 106.32039063 -49.5234375 106.3125 C-50.19600586 106.3021875 -50.86857422 106.291875 -51.56152344 106.28125 C-53.62453225 106.25000708 -55.68677773 106.24026992 -57.75 106.234375 C-67.84623365 106.15376635 -67.84623365 106.15376635 -69 105 C-69.09533653 101.8949275 -69.12551126 98.81213542 -69.11352539 95.70678711 C-69.11367142 94.73128403 -69.11381744 93.75578094 -69.1139679 92.75071716 C-69.11326833 89.50957047 -69.10547391 86.26848046 -69.09765625 83.02734375 C-69.09579222 80.78674857 -69.09436825 78.54615298 -69.09336853 76.30555725 C-69.08954213 70.3954049 -69.0797108 64.48527695 -69.06866455 58.57513428 C-69.05845306 52.54944183 -69.05387147 46.52374547 -69.04882812 40.49804688 C-69.03808864 28.66535384 -69.02101076 16.83267894 -69 5 C-64.19429764 2.89804381 -59.59564055 1.21207924 -54.5 -0.125 C-53.2521875 -0.45757812 -52.004375 -0.79015625 -50.71875 -1.1328125 C-36.11451137 -4.53842277 -14.07068669 -6.28490672 0 0 Z " fill="#F6F4FC" transform="translate(1221,254)"/>
<path d="M0 0 C3.94572049 2.63048033 5.58325668 4.50528779 7 9 C7.30078125 12.33984375 7.30078125 12.33984375 7.3125 15.9375 C7.32925781 17.12214844 7.34601563 18.30679687 7.36328125 19.52734375 C6.88660049 24.08400176 5.62845507 27.44186458 2.28125 30.64453125 C1.6934375 31.02996094 1.105625 31.41539062 0.5 31.8125 C-0.0878125 32.21082031 -0.675625 32.60914063 -1.28125 33.01953125 C-6.66390735 36.0900926 -13.02585402 35.72602469 -19 35 C-23.79386917 33.03206223 -27.00895067 30.39366312 -30 26.1875 C-32.46150344 18.3414578 -32.64925096 11.5629404 -29 4 C-21.94433415 -4.88183819 -9.27631769 -5.0928803 0 0 Z " fill="#F6F4FC" transform="translate(1248,327)"/>
<path d="M0 0 C-1.4615836 3.36997254 -3.3380888 5.60745127 -5.9375 8.1875 C-6.97197266 9.22970703 -6.97197266 9.22970703 -8.02734375 10.29296875 C-10 12 -10 12 -13 13 C-11.46781315 9.36938333 -9.2816856 7.0136227 -6.5 4.25 C-5.7059375 3.45078125 -4.911875 2.6515625 -4.09375 1.828125 C-2 0 -2 0 0 0 Z " fill="#C3CFF9" transform="translate(313,260)"/>
<path d="M0 0 C9.9 0 19.8 0 30 0 C30 0.33 30 0.66 30 1 C28.75126099 1.03758423 28.75126099 1.03758423 27.47729492 1.07592773 C24.38537167 1.17112694 21.29361148 1.27035672 18.2019043 1.37231445 C16.20696681 1.43687006 14.21188071 1.4967783 12.21679688 1.55664062 C10.96318359 1.59853516 9.70957031 1.64042969 8.41796875 1.68359375 C7.26063232 1.72025146 6.1032959 1.75690918 4.91088867 1.79467773 C1.9356554 1.88328509 1.9356554 1.88328509 -1 3 C-0.67 2.01 -0.34 1.02 0 0 Z " fill="#C0B6EE" transform="translate(1387,220)"/>
<path d="M0 0 C0.33 0 0.66 0 1 0 C1.054138 2.24973447 1.09285491 4.49984383 1.125 6.75 C1.14820313 8.00296875 1.17140625 9.2559375 1.1953125 10.546875 C1.01537302 13.72820492 0.68998582 15.36521896 -1 18 C-1.33 18 -1.66 18 -2 18 C-1.85946128 15.37461716 -1.71281053 12.74982573 -1.5625 10.125 C-1.52318359 9.37863281 -1.48386719 8.63226563 -1.44335938 7.86328125 C-1.11328125 2.2265625 -1.11328125 2.2265625 0 0 Z " fill="#9AA8F3" transform="translate(1099,303)"/>
<path d="M0 0 C-1.39750048 3.15835107 -3.05198234 5.32272825 -5.5 7.75 C-6.41265625 8.67039062 -6.41265625 8.67039062 -7.34375 9.609375 C-9 11 -9 11 -11 11 C-9.60249952 7.84164893 -7.94801766 5.67727175 -5.5 3.25 C-4.8915625 2.63640625 -4.283125 2.0228125 -3.65625 1.390625 C-2 0 -2 0 0 0 Z " fill="#C1CFF8" transform="translate(730,260)"/>
<path d="M0 0 C0.66 0 1.32 0 2 0 C2 7.26 2 14.52 2 22 C1.67 22 1.34 22 1 22 C1 16.39 1 10.78 1 5 C0.34 5 -0.32 5 -1 5 C-0.67 3.35 -0.34 1.7 0 0 Z " fill="#97AEF5" transform="translate(652,269)"/>
<path d="M0 0 C2.56220131 3.84330196 1.91906612 5.23190677 1.125 9.6875 C0.92132812 10.86699219 0.71765625 12.04648437 0.5078125 13.26171875 C0.34023438 14.16535156 0.17265625 15.06898438 0 16 C-0.33 16 -0.66 16 -1 16 C-1.02685095 13.52076199 -1.04676547 11.0418116 -1.0625 8.5625 C-1.07506836 7.50192383 -1.07506836 7.50192383 -1.08789062 6.41992188 C-1.09653588 4.61306441 -1.05220011 2.80612397 -1 1 C-0.67 0.67 -0.34 0.34 0 0 Z " fill="#B17FDC" transform="translate(568,269)"/>
<path d="M0 0 C0.66 0.33 1.32 0.66 2 1 C-0.97 3.97 -3.94 6.94 -7 10 C-7.66 9.67 -8.32 9.34 -9 9 C-6 6 -3 3 0 0 Z " fill="#C4D4FA" transform="translate(1469,259)"/>
</svg>
