<svg width="33" height="32" viewBox="0 0 33 32" fill="none" xmlns="http://www.w3.org/2000/svg">
<path d="M16.5069 7.91416C12.0351 7.91416 8.42803 11.5212 8.42803 15.9931C8.42803 20.4649 12.0351 24.072 16.5069 24.072C20.9788 24.072 24.5858 20.4649 24.5858 15.9931C24.5858 11.5212 20.9788 7.91416 16.5069 7.91416ZM16.5069 21.2454C13.6171 21.2454 11.2546 18.8899 11.2546 15.9931C11.2546 13.0962 13.6101 10.7407 16.5069 10.7407C19.4038 10.7407 21.7593 13.0962 21.7593 15.9931C21.7593 18.8899 19.3968 21.2454 16.5069 21.2454ZM26.8007 7.58369C26.8007 8.63135 25.9569 9.46807 24.9163 9.46807C23.8687 9.46807 23.0319 8.62432 23.0319 7.58369C23.0319 6.54307 23.8757 5.69932 24.9163 5.69932C25.9569 5.69932 26.8007 6.54307 26.8007 7.58369ZM32.1515 9.49619C32.0319 6.97197 31.4554 4.73603 29.6062 2.89385C27.764 1.05166 25.528 0.475098 23.0038 0.348535C20.4022 0.200879 12.6046 0.200879 10.003 0.348535C7.48584 0.468066 5.2499 1.04463 3.40068 2.88682C1.55147 4.729 0.981934 6.96494 0.855371 9.48916C0.707715 12.0907 0.707715 19.8884 0.855371 22.4899C0.974902 25.0142 1.55147 27.2501 3.40068 29.0923C5.2499 30.9345 7.47881 31.511 10.003 31.6376C12.6046 31.7853 20.4022 31.7853 23.0038 31.6376C25.528 31.5181 27.764 30.9415 29.6062 29.0923C31.4483 27.2501 32.0249 25.0142 32.1515 22.4899C32.2991 19.8884 32.2991 12.0978 32.1515 9.49619ZM28.7905 25.2813C28.2421 26.6595 27.1804 27.7212 25.7952 28.2767C23.721 29.0993 18.7991 28.9095 16.5069 28.9095C14.2147 28.9095 9.28584 29.0923 7.21865 28.2767C5.84053 27.7282 4.77881 26.6665 4.22334 25.2813C3.40068 23.2071 3.59053 18.2853 3.59053 15.9931C3.59053 13.7009 3.40772 8.77197 4.22334 6.70478C4.77178 5.32666 5.8335 4.26494 7.21865 3.70947C9.29287 2.88682 14.2147 3.07666 16.5069 3.07666C18.7991 3.07666 23.728 2.89385 25.7952 3.70947C27.1733 4.25791 28.2351 5.31963 28.7905 6.70478C29.6132 8.779 29.4233 13.7009 29.4233 15.9931C29.4233 18.2853 29.6132 23.2142 28.7905 25.2813Z" fill="#9CA3AF"/>
</svg>
