<?xml version="1.0" standalone="no"?>
<!DOCTYPE svg PUBLIC "-//W3C//DTD SVG 20010904//EN"
 "http://www.w3.org/TR/2001/REC-SVG-20010904/DTD/svg10.dtd">
<svg version="1.0" xmlns="http://www.w3.org/2000/svg"
 width="1832.000000pt" height="566.000000pt" viewBox="0 0 1832.000000 566.000000"
 preserveAspectRatio="xMidYMid meet">

<g transform="translate(0.000000,566.000000) scale(0.100000,-0.100000)"
fill="#000000" stroke="none">
<path d="M1650 3549 c0 -19 37 -94 133 -269 37 -69 119 -212 152 -268 78 -131
158 -261 194 -317 l46 -70 5 -295 5 -295 177 -3 177 -2 3 292 3 293 28 45
c111 177 196 317 324 540 85 147 192 357 186 364 -4 3 -92 6 -197 6 l-191 0
-79 -163 c-43 -89 -108 -214 -144 -277 -36 -63 -72 -127 -80 -142 -7 -16 -17
-28 -20 -28 -12 0 -126 209 -228 414 l-97 196 -198 0 c-196 0 -199 0 -199 -21z"/>
<path d="M5772 3503 c-6 -38 -14 -102 -17 -143 -3 -41 -10 -100 -15 -130 -5
-30 -14 -136 -20 -235 -6 -99 -15 -216 -20 -260 -6 -44 -15 -190 -20 -325 -6
-135 -13 -275 -17 -313 l-6 -67 179 2 179 3 6 160 c12 316 30 691 37 749 l7
59 47 -109 c26 -60 101 -235 166 -389 l120 -280 128 -3 129 -2 57 132 c31 73
91 214 133 313 43 99 85 198 94 220 10 22 24 55 31 72 7 18 16 31 20 28 4 -2
11 -85 15 -182 5 -98 9 -194 11 -213 3 -52 23 -501 24 -533 l0 -27 178 2 177
3 -3 80 c-1 44 -7 143 -12 220 -6 77 -14 217 -20 310 -17 310 -68 852 -85 905
-6 19 -15 20 -170 20 l-164 0 -74 -152 c-41 -84 -100 -209 -132 -278 -70 -155
-64 -143 -120 -275 -26 -60 -54 -127 -64 -148 l-17 -38 -88 208 c-105 247
-133 306 -237 521 l-80 162 -173 0 -173 0 -11 -67z"/>
<path d="M13966 3548 c-19 -88 -56 -467 -76 -778 -5 -85 -15 -231 -21 -325 -7
-93 -14 -225 -16 -293 l-5 -122 179 2 178 3 7 290 c4 160 12 323 18 363 5 40
10 105 11 145 0 40 4 92 7 116 8 52 5 57 77 -114 25 -60 50 -119 55 -130 5
-11 30 -69 55 -130 26 -60 53 -123 60 -140 8 -16 32 -70 53 -120 l38 -90 129
0 128 0 63 145 c34 80 69 161 77 180 9 19 36 85 62 145 26 61 55 128 64 150
10 22 29 66 42 99 l24 59 6 -39 c7 -38 25 -400 35 -684 2 -80 7 -169 10 -197
l5 -53 174 0 c129 0 174 3 178 13 2 6 1 44 -4 82 -4 39 -13 176 -19 305 -6
129 -13 255 -16 280 -2 25 -11 133 -19 240 -19 256 -41 469 -56 553 l-12 67
-165 -2 -164 -3 -36 -70 c-36 -68 -130 -264 -170 -355 -23 -51 -147 -340 -166
-385 -37 -90 -31 -85 -51 -40 -9 22 -27 65 -39 95 -55 134 -232 526 -289 635
l-62 120 -172 3 c-172 2 -173 2 -177 -20z"/>
<path d="M10509 3535 c-3 -2 -52 -11 -110 -20 -57 -8 -116 -18 -131 -21 l-28
-6 0 -523 c0 -532 6 -638 38 -721 44 -110 133 -189 258 -224 95 -27 252 -27
363 0 122 31 134 38 127 75 -3 16 -12 68 -21 115 -21 115 -24 123 -43 115 -67
-26 -252 -34 -297 -13 -15 7 -36 30 -48 52 -21 38 -22 57 -25 294 l-3 252 189
0 c150 0 192 3 201 14 8 9 11 56 9 142 l-3 129 -197 3 -198 2 0 170 0 170 -38
0 c-21 0 -41 -2 -43 -5z"/>
<path d="M3450 3220 c-112 -23 -200 -68 -278 -144 -105 -101 -159 -214 -182
-382 -12 -93 5 -242 39 -330 68 -177 196 -297 373 -348 89 -26 265 -22 355 7
208 69 329 211 378 445 50 242 -33 507 -201 643 -60 48 -170 95 -265 113 -102
19 -110 19 -219 -4z m212 -306 c48 -25 86 -76 109 -146 18 -56 21 -84 17 -175
-3 -97 -7 -115 -36 -175 -43 -89 -88 -118 -186 -118 -78 0 -114 15 -151 64
-90 118 -98 344 -17 476 54 88 171 121 264 74z"/>
<path d="M8080 3225 c-132 -27 -216 -71 -304 -161 -132 -136 -193 -349 -161
-564 39 -259 171 -414 406 -479 104 -29 316 -29 455 -1 102 21 155 37 165 53
8 12 -29 249 -41 261 -7 7 -35 3 -82 -10 -58 -15 -106 -19 -229 -19 -156 0
-156 0 -204 30 -58 36 -102 89 -111 133 l-6 32 370 0 370 0 7 73 c8 84 -8 241
-32 307 -33 95 -68 151 -129 210 -77 75 -159 114 -279 134 -103 18 -107 18
-195 1z m216 -315 c38 -31 69 -83 78 -132 l7 -38 -206 0 c-232 0 -220 -6 -181
84 17 38 37 64 68 86 41 30 47 32 123 28 68 -2 86 -7 111 -28z"/>
<path d="M11669 3236 c-3 -3 -35 -10 -73 -16 -90 -14 -204 -70 -273 -134 -79
-72 -131 -159 -169 -281 -26 -84 -26 -295 0 -380 37 -120 76 -186 155 -266
119 -119 218 -159 400 -159 94 0 130 5 197 25 191 58 334 225 374 436 15 81
12 254 -6 328 -50 201 -160 327 -359 412 -47 19 -235 46 -246 35z m139 -323
c37 -18 79 -64 98 -109 38 -91 33 -307 -9 -390 -45 -87 -89 -114 -188 -114
-96 0 -142 31 -186 125 -26 56 -28 69 -28 190 0 115 3 136 24 182 25 57 86
119 123 127 13 3 32 7 43 9 29 6 85 -3 123 -20z"/>
<path d="M16255 3221 c-235 -49 -392 -212 -445 -461 -25 -118 -25 -192 0 -309
27 -128 68 -207 144 -284 72 -72 151 -117 256 -146 143 -40 452 -22 586 34
l37 15 -7 67 c-4 36 -11 84 -16 107 -5 23 -12 54 -15 70 -7 32 -1 31 -130 2
-82 -18 -280 -21 -340 -5 -75 21 -147 91 -169 166 l-7 23 373 2 373 3 3 132
c2 115 -1 143 -21 218 -60 209 -194 329 -413 369 -108 19 -106 19 -209 -3z
m203 -295 c52 -27 97 -93 103 -151 l4 -30 -202 -3 c-232 -3 -223 -7 -182 88
16 36 34 58 67 80 39 26 54 30 114 30 40 0 80 -6 96 -14z"/>
<path d="M9290 3219 c-63 -5 -164 -19 -225 -32 l-110 -24 -3 -566 -2 -567 175
0 175 0 2 448 3 447 94 3 c133 4 172 -16 207 -108 14 -39 17 -97 21 -417 l5
-373 170 0 169 0 -3 423 c-4 406 -5 424 -26 481 -68 182 -183 266 -390 286
-107 10 -100 11 -262 -1z"/>
<path d="M12815 3213 c-40 -6 -217 -50 -252 -64 -15 -5 -31 -16 -35 -22 -10
-16 -10 -1069 0 -1085 7 -9 49 -12 178 -10 l169 3 3 441 2 442 31 6 c56 11
165 6 238 -10 39 -9 77 -14 85 -11 8 3 17 21 21 39 3 18 12 60 20 93 7 33 16
78 20 101 6 38 4 42 -22 52 -52 21 -157 32 -293 30 -74 0 -148 -3 -165 -5z"/>
<path d="M4370 2858 c0 -189 5 -383 10 -431 13 -124 49 -214 115 -286 60 -64
108 -92 210 -121 130 -37 414 -21 645 37 l35 9 3 567 2 567 -170 0 -170 0 -2
-447 -3 -448 -106 -3 c-96 -2 -108 -1 -140 20 -24 17 -40 39 -54 78 -18 51
-20 84 -23 428 l-3 372 -174 0 -175 0 0 -342z"/>
<path d="M13370 2402 c-95 -46 -130 -98 -130 -193 0 -128 84 -209 214 -209 89
1 152 37 189 109 59 117 20 232 -98 287 -59 28 -124 30 -175 6z"/>
</g>
</svg>
