<svg width="17" height="17" viewBox="0 0 17 17" fill="none" xmlns="http://www.w3.org/2000/svg">
<path d="M9.48116 1.0625C9.31553 0.71875 8.96553 0.5 8.58116 0.5C8.19678 0.5 7.84991 0.71875 7.68116 1.0625L5.67178 5.19688L1.18428 5.85938C0.809283 5.91563 0.496783 6.17812 0.381158 6.5375C0.265533 6.89687 0.359283 7.29375 0.628033 7.55937L3.88428 10.7812L3.11553 15.3344C3.05303 15.7094 3.20928 16.0906 3.51866 16.3125C3.82803 16.5344 4.23741 16.5625 4.57491 16.3844L8.58428 14.2437L12.5937 16.3844C12.9312 16.5625 13.3405 16.5375 13.6499 16.3125C13.9593 16.0875 14.1155 15.7094 14.053 15.3344L13.2812 10.7812L16.5374 7.55937C16.8062 7.29375 16.903 6.89687 16.7843 6.5375C16.6655 6.17812 16.3562 5.91563 15.9812 5.85938L11.4905 5.19688L9.48116 1.0625Z" fill="#4F46E5"/>
</svg>
