<svg width="32" height="36" viewBox="0 0 32 36" fill="none" xmlns="http://www.w3.org/2000/svg">
<path d="M31.7499 14.7593C28.6544 14.7667 25.6348 13.8013 23.1176 11.9995V24.5658C23.1168 26.8932 22.4054 29.1649 21.0786 31.0771C19.7518 32.9893 17.8729 34.4508 15.693 35.2663C13.5132 36.0818 11.1363 36.2124 8.88025 35.6405C6.62418 35.0687 4.59646 33.8218 3.06821 32.0664C1.53997 30.311 0.584048 28.1309 0.328271 25.8176C0.0724948 23.5043 0.529054 21.1681 1.6369 19.1212C2.74475 17.0744 4.45107 15.4146 6.52772 14.3637C8.60437 13.3128 10.9524 12.921 13.2577 13.2405V19.5609C12.2028 19.2291 11.07 19.2391 10.021 19.5895C8.97213 19.9399 8.06075 20.6128 7.41706 21.512C6.77336 22.4113 6.43028 23.4909 6.43679 24.5968C6.4433 25.7027 6.79908 26.7782 7.45333 27.6698C8.10757 28.5614 9.02681 29.2235 10.0798 29.5615C11.1328 29.8996 12.2656 29.8962 13.3166 29.552C14.3675 29.2077 15.2828 28.5402 15.9318 27.6448C16.5807 26.7493 16.9302 25.6717 16.9301 24.5658V0H23.1176C23.1133 0.52252 23.1571 1.04433 23.2484 1.55883C23.4634 2.70737 23.9105 3.79997 24.5622 4.76981C25.214 5.73965 26.0568 6.56633 27.039 7.1993C28.4363 8.12327 30.0747 8.61574 31.7499 8.61539V14.7593Z" fill="#9CA3AF"/>
</svg>
