<svg width="37" height="30" viewBox="0 0 37 30" fill="none" xmlns="http://www.w3.org/2000/svg">
<path d="M33.0495 7.66763C33.0723 7.98741 33.0723 8.30726 33.0723 8.62704C33.0723 18.3808 25.6485 29.6194 12.0799 29.6194C7.89973 29.6194 4.01651 28.4087 0.75 26.3073C1.34393 26.3757 1.91494 26.3986 2.53172 26.3986C5.9809 26.3986 9.15607 25.2337 11.6916 23.2463C8.44795 23.1778 5.72967 21.0534 4.79311 18.1296C5.25 18.198 5.70682 18.2437 6.18656 18.2437C6.84898 18.2437 7.51146 18.1523 8.12817 17.9925C4.74748 17.3072 2.21187 14.3377 2.21187 10.7514V10.6601C3.19406 11.2083 4.33629 11.5509 5.54686 11.5965C3.55955 10.2716 2.25757 8.01026 2.25757 5.45187C2.25757 4.08134 2.62298 2.82499 3.26262 1.72854C6.89461 6.20569 12.354 9.12949 18.4758 9.44934C18.3616 8.90112 18.293 8.33011 18.293 7.75903C18.293 3.693 21.5824 0.380859 25.6712 0.380859C27.7956 0.380859 29.7143 1.27172 31.0621 2.7108C32.7295 2.39102 34.3285 1.77424 35.7448 0.929086C35.1965 2.64232 34.0316 4.08141 32.5012 4.99505C33.9859 4.83523 35.425 4.42397 36.7499 3.85296C35.745 5.31483 34.4885 6.61681 33.0495 7.66763Z" fill="#9CA3AF"/>
</svg>
