<svg width="36" height="36" viewBox="0 0 36 36" fill="none" xmlns="http://www.w3.org/2000/svg">
<g clip-path="url(#clip0_24_173)">
<path d="M28.0547 27.0141C26.5008 24.3141 23.5828 22.5 20.25 22.5H15.75C12.4172 22.5 9.49922 24.3141 7.94531 27.0141C10.4203 29.7703 14.0063 31.5 18 31.5C21.9937 31.5 25.5797 29.7633 28.0547 27.0141ZM0 18C0 13.2261 1.89642 8.64773 5.27208 5.27208C8.64773 1.89642 13.2261 0 18 0C22.7739 0 27.3523 1.89642 30.7279 5.27208C34.1036 8.64773 36 13.2261 36 18C36 22.7739 34.1036 27.3523 30.7279 30.7279C27.3523 34.1036 22.7739 36 18 36C13.2261 36 8.64773 34.1036 5.27208 30.7279C1.89642 27.3523 0 22.7739 0 18ZM18 19.125C19.3427 19.125 20.6303 18.5916 21.5797 17.6422C22.5291 16.6928 23.0625 15.4052 23.0625 14.0625C23.0625 12.7198 22.5291 11.4322 21.5797 10.4828C20.6303 9.53337 19.3427 9 18 9C16.6573 9 15.3697 9.53337 14.4203 10.4828C13.4709 11.4322 12.9375 12.7198 12.9375 14.0625C12.9375 15.4052 13.4709 16.6928 14.4203 17.6422C15.3697 18.5916 16.6573 19.125 18 19.125Z" fill="#7C3AED"/>
</g>
<defs>
<clipPath id="clip0_24_173">
<path d="M0 0H36V36H0V0Z" fill="white"/>
</clipPath>
</defs>
</svg>
