<svg width="39" height="28" viewBox="0 0 39 28" fill="none" xmlns="http://www.w3.org/2000/svg">
<path d="M37.8977 4.72459C37.4561 3.0617 36.1549 1.75205 34.5027 1.30761C31.5081 0.5 19.5001 0.5 19.5001 0.5C19.5001 0.5 7.4921 0.5 4.49742 1.30761C2.84529 1.75213 1.54409 3.0617 1.10246 4.72459C0.300049 7.73867 0.300049 14.0273 0.300049 14.0273C0.300049 14.0273 0.300049 20.3159 1.10246 23.33C1.54409 24.9929 2.84529 26.2479 4.49742 26.6924C7.4921 27.5 19.5001 27.5 19.5001 27.5C19.5001 27.5 31.508 27.5 34.5027 26.6924C36.1549 26.2479 37.4561 24.9929 37.8977 23.33C38.7001 20.3159 38.7001 14.0273 38.7001 14.0273C38.7001 14.0273 38.7001 7.73867 37.8977 4.72459ZM15.5728 19.7369V8.3177L25.6091 14.0274L15.5728 19.7369Z" fill="#9CA3AF"/>
</svg>
