<svg width="102" height="24" viewBox="0 0 102 24" fill="none" xmlns="http://www.w3.org/2000/svg">
<g clip-path="url(#clip0_0_1)">
<g clip-path="url(#clip1_0_1)">
<path d="M7.33594 20.9859L6.74531 22.3688C5.86875 21.9234 5.0625 21.375 4.33125 20.7328L5.39531 19.6688C5.98125 20.1797 6.63281 20.625 7.33594 20.9859ZM1.90312 12.75H0.398438C0.464062 13.7437 0.651563 14.7047 0.946875 15.6141L2.34375 15.0563C2.11406 14.3203 1.95937 13.5469 1.90312 12.75ZM1.90312 11.25C1.96875 10.3687 2.14688 9.51562 2.42344 8.71406L1.04063 8.12344C0.689063 9.10781 0.46875 10.1578 0.398438 11.25H1.90312ZM3.01406 7.33594C3.37969 6.6375 3.82031 5.98594 4.33125 5.39062L3.26719 4.32656C2.625 5.05781 2.07187 5.86406 1.63125 6.74063L3.01406 7.33594ZM18.6094 19.6688C17.9578 20.2313 17.2312 20.7141 16.4484 21.0938L17.0062 22.4906C17.9766 22.0266 18.8719 21.4313 19.6734 20.7281L18.6094 19.6688ZM5.39062 4.33125C6.04219 3.76875 6.76875 3.28594 7.55156 2.90625L6.99375 1.50938C6.02344 1.97344 5.12813 2.56875 4.33125 3.27188L5.39062 4.33125ZM20.9859 16.6641C20.6203 17.3625 20.1797 18.0141 19.6688 18.6094L20.7328 19.6734C21.375 18.9422 21.9281 18.1313 22.3688 17.2594L20.9859 16.6641ZM22.0969 12.75C22.0312 13.6313 21.8531 14.4844 21.5766 15.2859L22.9594 15.8766C23.3109 14.8875 23.5312 13.8375 23.5969 12.7453H22.0969V12.75ZM15.0563 21.6562C14.3203 21.8906 13.5469 22.0406 12.75 22.0969V23.6016C13.7437 23.5359 14.7047 23.3484 15.6141 23.0531L15.0563 21.6562ZM11.25 22.0969C10.3687 22.0312 9.51562 21.8531 8.71406 21.5766L8.12344 22.9594C9.1125 23.3109 10.1625 23.5312 11.2547 23.5969V22.0969H11.25ZM21.6562 8.94375C21.8906 9.67969 22.0406 10.4531 22.0969 11.25H23.6016C23.5359 10.2563 23.3484 9.29531 23.0531 8.38594L21.6562 8.94375ZM4.33125 18.6094C3.76875 17.9578 3.28594 17.2312 2.90625 16.4484L1.50938 17.0062C1.97344 17.9766 2.56875 18.8719 3.27188 19.6734L4.33125 18.6094ZM12.75 1.90312C13.6313 1.96875 14.4797 2.14688 15.2859 2.42344L15.8766 1.04063C14.8922 0.689063 13.8422 0.46875 12.75 0.398438V1.90312ZM8.94375 2.34375C9.67969 2.10938 10.4531 1.95937 11.25 1.90312V0.398438C10.2563 0.464062 9.29531 0.651563 8.38594 0.946875L8.94375 2.34375ZM20.7328 4.32656L19.6688 5.39062C20.2313 6.04219 20.7141 6.76875 21.0984 7.55156L22.4953 6.99375C22.0312 6.02344 21.4359 5.12813 20.7328 4.32656ZM18.6094 4.33125L19.6734 3.26719C18.9422 2.625 18.1359 2.07187 17.2594 1.63125L16.6688 3.01406C17.3625 3.37969 18.0187 3.82031 18.6094 4.33125Z" fill="#4F46E5"/>
<path d="M12 18.375C12.7249 18.375 13.3125 17.7874 13.3125 17.0625C13.3125 16.3376 12.7249 15.75 12 15.75C11.2751 15.75 10.6875 16.3376 10.6875 17.0625C10.6875 17.7874 11.2751 18.375 12 18.375Z" fill="#4F46E5"/>
<path d="M12.361 14.625H11.611C11.3017 14.625 11.0485 14.3719 11.0485 14.0625C11.0485 10.7344 14.6767 11.0672 14.6767 9.00937C14.6767 8.07187 13.8423 7.125 11.986 7.125C10.622 7.125 9.90948 7.575 9.21104 8.47031C9.02823 8.70469 8.69073 8.75156 8.45167 8.58281L7.8376 8.15156C7.5751 7.96875 7.51417 7.59844 7.71573 7.34531C8.70948 6.07031 9.89073 5.25 11.9907 5.25C14.4423 5.25 16.5564 6.64687 16.5564 9.00937C16.5564 12.1781 12.9282 11.9859 12.9282 14.0625C12.9235 14.3719 12.6704 14.625 12.361 14.625Z" fill="#4F46E5"/>
</g>
</g>
<path d="M35.7713 17H32.4759L37.4972 2.45455H41.4602L46.4744 17H43.179L39.5355 5.77841H39.4219L35.7713 17ZM35.5653 11.2827H43.3494V13.6832H35.5653V11.2827ZM56.9911 9.2017L54.2212 9.37216C54.1739 9.13542 54.0721 8.92235 53.9158 8.73295C53.7596 8.53883 53.5536 8.38494 53.2979 8.27131C53.047 8.15294 52.7463 8.09375 52.396 8.09375C51.9272 8.09375 51.5318 8.19318 51.2099 8.39205C50.8879 8.58617 50.7269 8.84659 50.7269 9.1733C50.7269 9.43371 50.8311 9.65388 51.0394 9.83381C51.2478 10.0137 51.6052 10.1581 52.1119 10.267L54.0863 10.6648C55.1469 10.8826 55.9376 11.233 56.4585 11.7159C56.9793 12.1989 57.2397 12.8333 57.2397 13.6193C57.2397 14.3343 57.029 14.9616 56.6076 15.5014C56.1909 16.0412 55.618 16.4626 54.8888 16.7656C54.1644 17.0639 53.3287 17.2131 52.3817 17.2131C50.9376 17.2131 49.7871 16.9124 48.93 16.3111C48.0778 15.705 47.5782 14.8812 47.4315 13.8395L50.4073 13.6832C50.4973 14.1236 50.7151 14.4598 51.0607 14.6918C51.4064 14.919 51.8491 15.0327 52.3888 15.0327C52.9192 15.0327 53.3453 14.9309 53.6673 14.7273C53.994 14.5189 54.1597 14.2514 54.1644 13.9247C54.1597 13.6501 54.0437 13.4252 53.8164 13.25C53.5891 13.0701 53.2388 12.9328 52.7653 12.8381L50.8761 12.4616C49.8107 12.2486 49.0176 11.8793 48.4968 11.3537C47.9807 10.8281 47.7227 10.1581 47.7227 9.34375C47.7227 8.64299 47.9121 8.0393 48.2908 7.53267C48.6744 7.02604 49.2118 6.63542 49.9031 6.3608C50.5991 6.08617 51.4135 5.94886 52.3462 5.94886C53.7241 5.94886 54.8084 6.24006 55.5991 6.82244C56.3945 7.40483 56.8585 8.19792 56.9911 9.2017ZM61.8864 13.8608L61.8935 10.2315H62.3338L65.8281 6.09091H69.3011L64.6065 11.5739H63.8892L61.8864 13.8608ZM59.1449 17V2.45455H62.1705V17H59.1449ZM65.9631 17L62.7528 12.2486L64.7699 10.1108L69.5071 17H65.9631ZM70.8423 17V2.45455H76.581C77.6842 2.45455 78.6241 2.66525 79.4006 3.08665C80.1771 3.50331 80.7689 4.08333 81.1761 4.8267C81.5881 5.56534 81.794 6.41761 81.794 7.38352C81.794 8.34943 81.5857 9.2017 81.169 9.94034C80.7524 10.679 80.1487 11.2543 79.358 11.6662C78.572 12.0781 77.6203 12.2841 76.5028 12.2841H72.8452V9.8196H76.0057C76.5975 9.8196 77.0852 9.7178 77.4688 9.5142C77.857 9.30587 78.1458 9.01941 78.3352 8.65483C78.5294 8.28551 78.6264 7.86174 78.6264 7.38352C78.6264 6.90057 78.5294 6.47917 78.3352 6.11932C78.1458 5.75473 77.857 5.47301 77.4688 5.27415C77.0805 5.07055 76.5881 4.96875 75.9915 4.96875H73.9176V17H70.8423ZM83.7347 17V6.09091H86.668V7.99432H86.7816C86.9805 7.31723 87.3143 6.80587 87.783 6.46023C88.2518 6.10985 88.7915 5.93466 89.4023 5.93466C89.5539 5.93466 89.7172 5.94413 89.8924 5.96307C90.0676 5.98201 90.2215 6.00805 90.354 6.04119V8.72585C90.212 8.68324 90.0155 8.64536 89.7646 8.61222C89.5136 8.57907 89.284 8.5625 89.0756 8.5625C88.6306 8.5625 88.2328 8.65956 87.8825 8.85369C87.5368 9.04309 87.2622 9.30824 87.0586 9.64915C86.8597 9.99006 86.7603 10.383 86.7603 10.8281V17H83.7347ZM96.3395 17.2131C95.2363 17.2131 94.2822 16.9787 93.4773 16.5099C92.6771 16.0365 92.0592 15.3783 91.6236 14.5355C91.188 13.688 90.9702 12.7055 90.9702 11.5881C90.9702 10.4612 91.188 9.47633 91.6236 8.63352C92.0592 7.78598 92.6771 7.12784 93.4773 6.65909C94.2822 6.18561 95.2363 5.94886 96.3395 5.94886C97.4427 5.94886 98.3944 6.18561 99.1946 6.65909C99.9995 7.12784 100.62 7.78598 101.055 8.63352C101.491 9.47633 101.709 10.4612 101.709 11.5881C101.709 12.7055 101.491 13.688 101.055 14.5355C100.62 15.3783 99.9995 16.0365 99.1946 16.5099C98.3944 16.9787 97.4427 17.2131 96.3395 17.2131ZM96.3537 14.8693C96.8556 14.8693 97.2746 14.7273 97.6108 14.4432C97.947 14.1544 98.2003 13.7614 98.3707 13.2642C98.5459 12.767 98.6335 12.2012 98.6335 11.5668C98.6335 10.9323 98.5459 10.3665 98.3707 9.86932C98.2003 9.37216 97.947 8.97917 97.6108 8.69034C97.2746 8.40151 96.8556 8.2571 96.3537 8.2571C95.8471 8.2571 95.4209 8.40151 95.0753 8.69034C94.7344 8.97917 94.4763 9.37216 94.3011 9.86932C94.1307 10.3665 94.0455 10.9323 94.0455 11.5668C94.0455 12.2012 94.1307 12.767 94.3011 13.2642C94.4763 13.7614 94.7344 14.1544 95.0753 14.4432C95.4209 14.7273 95.8471 14.8693 96.3537 14.8693Z" fill="#1F2937"/>
<defs>
<clipPath id="clip0_0_1">
<rect width="24" height="24" fill="white"/>
</clipPath>
<clipPath id="clip1_0_1">
<path d="M0 0H24V24H0V0Z" fill="white"/>
</clipPath>
</defs>
</svg>
